<svg id="Capa_1" enable-background="new 0 0 512 512" height="512" viewBox="0 0 512 512" width="512" xmlns="http://www.w3.org/2000/svg"><g><path d="m336.405 346.57h-160.81c-12.406 0-22.5 10.094-22.5 22.5v61.859c0 12.406 10.094 22.5 22.5 22.5h160.811c12.406 0 22.5-10.094 22.5-22.5v-61.859c-.001-12.406-10.094-22.5-22.501-22.5zm7.5 84.36c0 4.136-3.364 7.5-7.5 7.5h-160.81c-4.136 0-7.5-3.364-7.5-7.5v-61.86c0-4.136 3.364-7.5 7.5-7.5h160.811c4.136 0 7.5 3.364 7.5 7.5v61.86zm23.095-122.935h-222c-4.143 0-7.5 3.357-7.5 7.5s3.357 7.5 7.5 7.5h214.5v14.473c0 4.143 3.357 7.5 7.5 7.5s7.5-3.357 7.5-7.5v-21.973c0-4.142-3.357-7.5-7.5-7.5zm115.192 0h-3.5v-28.279c0-6.893-5.607-12.5-12.5-12.5h-19.192c-6.893 0-12.5 5.607-12.5 12.5v28.279h-15v-48.516c9.102-6.848 15-17.737 15-29.979v-75.5c17.206.564 32.054-12.955 32-30.5v-48c0-16.817-13.683-30.5-30.5-30.5h-103.948v-7.5c0-20.678-16.822-37.5-37.5-37.5h-77.104c-20.678 0-37.5 16.822-37.5 37.5v7.5h-103.948c-16.817 0-30.5 13.683-30.5 30.5v48c-.048 17.25 14.639 31.387 32 30.5v75.5c0 12.242 5.898 23.131 15 29.979v48.516h-15v-28.279c0-6.893-5.607-12.5-12.5-12.5h-19.192c-6.893 0-12.5 5.607-12.5 12.5v28.279h-3.5c-6.341 0-11.5 5.159-11.5 11.5v104.052c0 16.478 13.405 29.883 29.882 29.883h44.31v11.07c0 26.191 21.309 47.5 47.5 47.5h232c26.191 0 47.5-21.309 47.5-47.5v-11.07h44.311c16.477 0 29.882-13.405 29.882-29.883v-104.052c-.001-6.341-5.16-11.5-11.501-11.5zm-32.692-25.779h14.192v25.779h-14.192zm-44.552-222.216h31.052c8.547 0 15.5 6.953 15.5 15.5v48c0 8.547-6.953 15.5-15.5 15.5h-31.052zm-42.896 0h27.896v112.593l-13.948 9.755-13.948-9.755zm-167.104-22.5c0-12.406 10.094-22.5 22.5-22.5h77.104c12.406 0 22.5 10.094 22.5 22.5v7.5h-122.104zm-72.896 22.5h27.896v112.593l-13.948 9.755-13.948-9.755zm-46.052 79c-8.547 0-15.5-6.953-15.5-15.5v-48c0-8.547 6.953-15.5 15.5-15.5h31.052v79zm-27.692 143.216h14.192v25.779h-14.192zm356.192 182.284c0 17.921-14.579 32.5-32.5 32.5h-232c-17.921 0-32.5-14.579-32.5-32.5v-65.216c0-4.143-3.357-7.5-7.5-7.5s-7.5 3.357-7.5 7.5v39.146h-44.311c-8.206 0-14.882-6.677-14.882-14.883v-100.552h59.193v41.289c0 4.143 3.357 7.5 7.5 7.5s7.5-3.357 7.5-7.5v-98.039c2.424.494 4.932.755 7.5.755h106v7c0 9.649 7.851 17.5 17.5 17.5h35c9.649 0 17.5-7.851 17.5-17.5v-7h106c2.568 0 5.076-.261 7.5-.755zm-168.5-190.5v-29c0-1.379 1.121-2.5 2.5-2.5h35c1.379 0 2.5 1.121 2.5 2.5v29c0 1.379-1.121 2.5-2.5 2.5h-35c-1.379 0-2.5-1.121-2.5-2.5zm161-22h-106v-7c0-9.649-7.851-17.5-17.5-17.5h-35c-9.649 0-17.5 7.851-17.5 17.5v7h-106c-12.406 0-22.5-10.094-22.5-22.5v-75.5h14.552v19.374c0 4.405 2.155 8.541 5.764 11.063l15.446 10.803c4.628 3.238 10.848 3.238 15.475.001l15.447-10.803c3.609-2.523 5.765-6.659 5.765-11.064v-19.374h121.853c4.143 0 7.5-3.357 7.5-7.5s-3.357-7.5-7.5-7.5h-121.854v-79h182.104v79h-25.251c-4.143 0-7.5 3.357-7.5 7.5s3.357 7.5 7.5 7.5h25.251v19.374c0 4.405 2.155 8.541 5.764 11.063l15.446 10.803c4.628 3.238 10.848 3.239 15.475.001l15.447-10.803c3.609-2.523 5.765-6.659 5.765-11.064v-19.374h14.551v75.5c0 12.406-10.094 22.5-22.5 22.5zm81.692 171.547c0 8.206-6.676 14.883-14.882 14.883h-44.31v-115.435h59.192z"/></g></svg>