<svg id="Capa_1" enable-background="new 0 0 512 512" height="512" viewBox="0 0 512 512" width="512" xmlns="http://www.w3.org/2000/svg"><g><path d="m386.288 390.255c-2.436-37.194-33.454-66.714-71.254-66.714h-116.696c-37.713 0-68.672 29.385-71.234 66.458-.315 1.394-.192 3.615-.192 4.968v68.639c0 11.722 9.536 21.258 21.258 21.258h217.033c11.722 0 21.258-9.536 21.258-21.258v-68.639c-.001-1.302.113-3.378-.173-4.712zm-187.95-51.506h116.696c27.333 0 50.161 19.611 55.181 45.498l-192.793-.141c-.206-.017-.412-.031-.622-.031-.204 0-.404.015-.604.03l-33.009-.024c5.085-25.806 27.876-45.332 55.151-45.332zm166.864 130.907h-217.032c-3.336 0-6.05-2.714-6.05-6.05v-64.318l27.076.02v22.369c0 4.2 3.404 7.604 7.604 7.604 4.199 0 7.604-3.404 7.604-7.604v-22.358l186.849.137v64.151c-.001 3.336-2.715 6.049-6.051 6.049z"/><circle cx="65.223" cy="402.66" r="7.447"/><path d="m471.224 364.283-51.063-37.014v-33.756c0-4.2-3.404-7.604-7.604-7.604s-7.604 3.404-7.604 7.604l-.005 193.375c-.053 5.47-4.303 9.904-9.526 9.904h-278.842c-5.245 0-9.513-4.473-9.529-9.976l-.001-252.432h26.541v18.602c0 6.23 4.511 11.416 10.437 12.49-1.278 43.695 59.667 40.006 56.955 0 5.925-1.074 10.437-6.26 10.437-12.49v-18.602h89.16v18.602c0 6.23 4.512 11.416 10.437 12.49-1.278 43.695 59.667 40.006 56.955 0 5.925-1.074 10.437-6.26 10.437-12.49v-18.602h26.545v23.644c0 4.2 3.404 7.604 7.604 7.604 4.199 0 7.604-3.404 7.604-7.604v-65.394c3.654-.047 3.255.146 8.111-.221 20.912-2.194 37.284-20.437 37.284-42.544v-65.357c0-23.581-18.628-42.765-41.524-42.765h-97.807v-14.844c-.001-14.834-12.07-26.903-26.904-26.903h-86.644c-14.834 0-26.903 12.069-26.903 26.903v14.844h-97.807c-19.319 0-35.599 13.658-40.214 32.09-.855 3.413-1.31 6.991-1.31 10.675v65.356c0 13.783 6.371 26.057 16.232 33.883 7.167 5.62 16.54 9.348 29.167 8.882v134.633l-51.069 37.019c-7.232 5.249-11.55 13.655-11.55 22.488v81.094c0 15.415 12.775 27.955 28.478 27.955h35.791c3.572 9.452 12.571 16.178 23.087 16.178h278.842c10.517 0 19.516-6.726 23.089-16.177h35.788c15.702 0 28.478-12.541 28.478-27.955v-81.094c0-8.832-4.317-17.239-11.553-22.491zm-351.539-307.328h272.629c-6.111 7.449-9.805 17.065-9.805 27.557v65.356c0 10.492 3.694 20.108 9.805 27.557h-24.342v-34.143-16.52c0-12.348-10.046-22.394-22.394-22.394h-114.746c-4.2 0-7.604 3.404-7.604 7.604s3.404 7.604 7.604 7.604h114.746c3.962 0 7.186 3.223 7.186 7.186v8.916h-193.528v-8.916c0-3.962 3.224-7.186 7.186-7.186h28.925c4.2 0 7.604-3.404 7.604-7.604s-3.404-7.604-7.604-7.604h-28.925c-12.348 0-22.394 10.046-22.394 22.394v16.52 34.143h-24.342c6.111-7.449 9.805-17.065 9.805-27.557v-65.356c0-10.492-3.695-20.108-9.806-27.557zm191.332 93.932v26.539h-110.034v-26.539zm41.747 0v68.286h-26.539v-68.286zm-193.528 0h26.539v68.286h-26.539zm41.747 68.289v-26.543h110.034v26.543zm-15.208 49.944c-1.678 19.399-29.229 14.887-26.539-3.429h26.539zm10.437-18.637h-2.833-41.747-2.833v-16.099h47.413zm156.552 18.637c-1.678 19.399-29.229 14.887-26.539-3.429h26.539zm10.437-18.637h-2.833-41.747-2.833v-16.099h47.413zm41.752-31.307h-36.981v-26.543h36.981zm45.395-134.664v65.356c0 14.72-11.079 26.782-24.964 27.522-.448.024-.899.036-1.352.036-14.51 0-26.315-12.362-26.315-27.557v-65.357c0-15.195 11.805-27.557 26.315-27.557 14.511 0 26.316 12.362 26.316 27.557zm-249.365-57.609c0-6.449 5.247-11.695 11.695-11.695h86.644c6.449 0 11.695 5.247 11.695 11.695v14.844h-110.034zm-114.368 150.487c-13.885-.74-24.964-12.801-24.964-27.522v-65.356c0-15.195 11.805-27.557 26.316-27.557s26.315 12.362 26.315 27.557v65.356c0 15.195-11.805 27.557-26.315 27.557-.453.001-.904-.011-1.352-.035zm57.413 15.244v26.543h-36.978v-26.543zm-94.326 183.962 42.14-30.547v65.966c-16.015 7.916-35.581 14.029-47.411 5.028v-30.27c0-3.976 1.972-7.782 5.271-10.177zm-5.271 91.271v-33.614c14.507 5.339 31.986 1.17 47.411-5.488v51.85h-34.141c-7.317 0-13.27-5.718-13.27-12.748zm417.863-91.273c3.303 2.397 5.275 6.203 5.275 10.18v30.27c-11.829 9.003-31.393 2.889-47.408-5.026v-65.965zm5.275 91.273c0 7.029-5.953 12.747-13.27 12.747h-34.138v-51.849c15.428 6.658 32.906 10.825 47.408 5.486z"/><circle cx="447.135" cy="402.66" r="7.447"/><path d="m330.191 414.744h-73.057c-4.2 0-7.604 3.404-7.604 7.604v26.883c0 4.2 3.404 7.604 7.604 7.604h73.057c4.2 0 7.604-3.404 7.604-7.604v-26.883c0-4.2-3.405-7.604-7.604-7.604zm-7.604 26.882h-57.85v-11.675h57.85z"/></g></svg>