<svg id="Capa_1" enable-background="new 0 0 512 512" height="512" viewBox="0 0 512 512" width="512" xmlns="http://www.w3.org/2000/svg"><g><path d="m104.23 284.517c-4.142 0-7.5 3.358-7.5 7.5 0 4.143 3.358 7.5 7.5 7.5s7.5-3.357 7.5-7.5c0-4.142-3.358-7.5-7.5-7.5zm15.643-135.078c3.274-2.537 3.871-7.248 1.333-10.522-2.537-3.273-7.248-3.871-10.522-1.333-3.274 2.537-3.871 7.248-1.333 10.522 2.537 3.274 7.248 3.871 10.522 1.333zm263.047 220.29c-4.142 0-7.5 3.358-7.5 7.5 0 4.143 3.358 7.5 7.5 7.5s7.5-3.357 7.5-7.5c0-4.142-3.358-7.5-7.5-7.5zm34.721-11.887c0-4.143-3.358-7.5-7.5-7.5s-7.5 3.357-7.5 7.5c0 4.142 3.358 7.5 7.5 7.5s7.5-3.359 7.5-7.5zm-264.376-209.754c3.274-2.537 3.871-7.248 1.333-10.522-2.537-3.273-7.249-3.871-10.522-1.333-3.274 2.537-3.871 7.248-1.333 10.522 2.537 3.273 7.248 3.87 10.522 1.333zm-42.774 33.152c3.274-2.537 3.871-7.248 1.333-10.522-2.537-3.273-7.249-3.87-10.522-1.333s-3.871 7.248-1.333 10.522c2.537 3.274 7.248 3.871 10.522 1.333zm248.895 82.522c-4.142 0-7.5 3.357-7.5 7.5s3.358 7.5 7.5 7.5c11.444 0 20.755 9.311 20.755 20.755 0 4.143 3.358 7.5 7.5 7.5s7.5-3.357 7.5-7.5c0-19.715-16.039-35.755-35.755-35.755zm-84.886-7.42c-14.061 0-25.5 11.439-25.5 25.5s11.439 25.5 25.5 25.5 25.5-11.439 25.5-25.5-11.439-25.5-25.5-25.5zm0 36c-5.79 0-10.5-4.71-10.5-10.5s4.71-10.5 10.5-10.5 10.5 4.71 10.5 10.5-4.71 10.5-10.5 10.5zm119.023-45.325c-4.142 0-7.5 3.358-7.5 7.5 0 4.143 3.358 7.5 7.5 7.5s7.5-3.357 7.5-7.5c0-4.142-3.358-7.5-7.5-7.5zm-33.523-25.175c0-14.061-11.439-25.5-25.5-25.5s-25.5 11.439-25.5 25.5 11.439 25.5 25.5 25.5 25.5-11.44 25.5-25.5zm-36 0c0-5.79 4.71-10.5 10.5-10.5s10.5 4.71 10.5 10.5-4.71 10.5-10.5 10.5-10.5-4.71-10.5-10.5zm9.523 70.175c-4.142 0-7.5 3.358-7.5 7.5 0 4.143 3.358 7.5 7.5 7.5s7.5-3.357 7.5-7.5c0-4.142-3.358-7.5-7.5-7.5zm121.325 11.806c-4.316-26.604-14.067-52.073-28.364-74.783 13.653-15.826 21.139-35.788 21.173-56.877.001-.05.007-.097.007-.146 0-.052-.007-.102-.008-.152-.942-46.118-35.555-84.212-81.568-87.089-3.452-.216-6.882 1-9.405 3.364-2.513 2.354-3.954 5.678-3.954 9.12v27.225c-2.676-.792-5.058-1.813-6.84-3.215-4.426-3.474-8.107-11.721-11.667-19.697-5.591-12.525-11.372-25.479-23.253-29.641-11.636-4.078-23.203 2.663-34.39 9.181-7.323 4.267-14.896 8.678-20.58 8.678s-13.257-4.411-20.58-8.678c-11.187-6.518-22.752-13.254-34.39-9.181-11.88 4.162-17.662 17.115-23.252 29.641-2.497 5.596-5.055 11.317-7.887 15.438-8.845-7.143-19.51-11.727-31.071-13.191-16.428-2.083-32.686 2.359-45.774 12.504-13.089 10.146-21.445 24.781-23.527 41.208-2.082 16.429 2.358 32.686 12.505 45.775 3.68 4.746 7.951 8.851 12.733 12.298-19.355 25.904-32.431 56.338-37.603 88.22-1.629 10.046 1.204 20.235 7.773 27.956 6.511 7.651 16.009 12.04 26.059 12.04h16.653c-.631 8.142-.049 16.466 4.525 23.245 6.736 9.985 19.109 12.413 30.584 14.117-.142 13.518 2.883 26.546 8.378 38.122 13.46 28.355 41.067 47.821 73.185 49.95 3.436.228 6.878-.997 9.399-3.358 2.512-2.353 3.952-5.675 3.952-9.115v-30.515c6.605-3.818 13.233-7.376 18.34-7.376 5.685 0 13.257 4.411 20.58 8.678 8.825 5.142 17.886 10.421 27.03 10.42 2.447 0 4.902-.378 7.358-1.238 11.883-4.16 17.665-17.116 23.256-29.646 1.754-3.93 3.541-7.935 5.437-11.403 10.431 9.739 24.259 15.921 39.634 16.582.11.005.219.007.328.007 3.994 0 7.314-3.149 7.488-7.178.178-4.139-3.033-7.638-7.171-7.815-14.147-.608-26.572-7.377-34.751-17.663-.213-.33-.451-.648-.721-.948-5.949-7.886-9.469-17.702-9.469-28.347 0-2.197.161-4.375.46-6.521h85.556c2.518 0 5.001-.276 7.412-.81.379 2.415.573 4.863.573 7.33 0 15.639-7.749 30.21-20.727 38.978-3.432 2.319-4.335 6.981-2.016 10.413 2.339 3.462 7.018 4.311 10.414 2.017 17.111-11.561 27.328-30.779 27.328-51.407 0-4.748-.547-9.444-1.61-14.029 1.685-1.35 3.26-2.857 4.684-4.531 6.57-7.721 9.403-17.911 7.774-27.957zm-37.183-87.664c-7.681-10.342-16.362-19.98-25.957-28.73-3.001-2.736-6.083-5.372-9.235-7.912h49.798c-1.371 13.392-6.403 26.004-14.606 36.642zm14.595-51.642h-55.335l36.713-41.341c10.224 11.186 16.979 25.555 18.622 41.341zm-64.53-64.552c12.891 1.326 24.743 6.059 34.703 13.238l-34.703 39.077zm-273.852 94.15c-7.691-9.922-11.057-22.245-9.479-34.698s7.913-23.548 17.835-31.239c9.923-7.692 22.248-11.06 34.698-9.479 10.821 1.372 20.613 6.338 28.042 14.127.04.039.078.081.119.119 5.227 4.905 8.685 11.593 10.809 18.407-21.8 9.438-41.867 22.774-59.465 39.685-4.277 4.11-8.356 8.412-12.241 12.876-3.894-2.705-7.356-5.977-10.318-9.798zm50.283 172.112c-8.667-1.306-16.427-2.9-19.564-7.551-2.269-3.362-2.456-8.838-1.9-14.856h28.8c-3.461 7.103-5.919 14.628-7.336 22.407zm13.969 23.29h55.343l-36.715 41.344c-10.229-11.187-16.986-25.558-18.628-41.344zm-.007-15c1.121-10.926 4.687-21.369 10.499-30.697h17.587l27.259 30.697zm64.537 79.546c-12.888-1.328-24.738-6.057-34.695-13.233l34.695-39.068zm0-91.785-16.391-18.459h16.391zm97.866 38.712c-4.095 9.177-8.736 19.578-14.516 21.602-5.102 1.784-13.633-3.181-21.88-7.985-9.044-5.269-18.396-10.717-28.131-10.717-6.265 0-12.371 2.259-18.34 5.272v-27.068c0-.025.004-.051.004-.077s-.004-.052-.004-.077v-38.12h82.685c-.226 2.157-.345 4.333-.345 6.521 0 12.183 3.497 23.542 9.545 33.13-3.522 5.208-6.305 11.44-9.018 17.519zm115.124-78.931c-3.656 4.297-8.99 6.761-14.635 6.761h-330.031c-5.645 0-10.979-2.464-14.635-6.761-3.714-4.365-5.315-10.137-4.391-15.833 6.507-40.098 25.762-76.402 54.871-104.372 29.592-28.434 66.094-45.811 106.853-50.669 4.113-.49 7.05-4.223 6.56-8.335-.491-4.113-4.219-7.05-8.335-6.56-14.464 1.725-28.513 4.963-41.996 9.621-2.129-6.44-5.327-12.541-9.45-17.988 4.512-5.677 7.804-13.047 11.014-20.236 4.095-9.175 8.736-19.574 14.514-21.599 5.104-1.781 13.633 3.18 21.88 7.985 9.044 5.269 18.396 10.717 28.131 10.717s19.087-5.448 28.131-10.717c8.247-4.806 16.772-9.771 21.88-7.985 5.778 2.024 10.419 12.424 14.514 21.599 4.305 9.644 8.755 19.616 16.099 25.379 4.604 3.62 10.269 5.587 16.106 6.889v19.681c-25.695-14.057-54.341-22.49-83.766-24.361-4.133-.247-7.698 2.876-7.96 7.01-.263 4.134 2.875 7.698 7.009 7.961 42.047 2.672 82.387 19.813 113.588 48.268 31.005 28.276 51.76 66.529 58.44 107.714.924 5.694-.676 11.465-4.391 15.831zm1.37-247.079c-48.353-48.351-112.64-74.98-181.02-74.98s-132.667 26.629-181.02 74.98c-48.351 48.352-74.98 112.64-74.98 181.02s26.629 132.668 74.98 181.02c48.353 48.351 112.64 74.98 181.02 74.98s132.667-26.629 181.02-74.98c48.351-48.352 74.98-112.64 74.98-181.02s-26.629-132.668-74.98-181.02zm-10.607 351.433c-45.519 45.519-106.039 70.587-170.413 70.587s-124.894-25.068-170.413-70.587-70.587-106.039-70.587-170.413 25.068-124.894 70.587-170.413 106.039-70.587 170.413-70.587 124.894 25.068 170.413 70.587 70.587 106.039 70.587 170.413-25.068 124.894-70.587 170.413zm-77.89-68.571c0 4.142 3.358 7.5 7.5 7.5s7.5-3.358 7.5-7.5c0-4.143-3.358-7.5-7.5-7.5s-7.5 3.357-7.5 7.5zm-97.5-128.227c0 4.143 3.358 7.5 7.5 7.5s7.5-3.357 7.5-7.5-3.358-7.5-7.5-7.5-7.5 3.358-7.5 7.5zm-88.382 34.147c-19.715 0-35.755 16.04-35.755 35.755 0 4.143 3.358 7.5 7.5 7.5s7.5-3.357 7.5-7.5c0-11.444 9.311-20.755 20.755-20.755 4.142 0 7.5-3.357 7.5-7.5s-3.358-7.5-7.5-7.5zm-24.118-31.745c4.142 0 7.5-3.357 7.5-7.5 0-4.142-3.358-7.5-7.5-7.5s-7.5 3.358-7.5 7.5 3.358 7.5 7.5 7.5zm75-45c4.142 0 7.5-3.357 7.5-7.5 0-4.142-3.358-7.5-7.5-7.5s-7.5 3.358-7.5 7.5 3.358 7.5 7.5 7.5zm-29.191 108.675c-4.142 0-7.5 3.357-7.5 7.5 0 4.142 3.358 7.5 7.5 7.5s7.5-3.358 7.5-7.5-3.358-7.5-7.5-7.5zm29.191-31.93c-4.142 0-7.5 3.357-7.5 7.5 0 4.142 3.358 7.5 7.5 7.5s7.5-3.358 7.5-7.5c0-4.143-3.358-7.5-7.5-7.5zm69.666-63.07c2.928 2.929 7.678 2.929 10.606 0 2.929-2.93 2.929-7.678 0-10.607-13.941-13.94-36.625-13.94-50.565 0-2.929 2.929-2.929 7.678 0 10.606 2.928 2.93 7.677 2.929 10.606.001 8.094-8.093 21.261-8.093 29.353 0zm-83.689-4.35c-14.061 0-25.5 11.439-25.5 25.5s11.439 25.5 25.5 25.5 25.5-11.439 25.5-25.5-11.439-25.5-25.5-25.5zm0 36c-5.79 0-10.5-4.71-10.5-10.5s4.71-10.5 10.5-10.5 10.5 4.71 10.5 10.5-4.71 10.5-10.5 10.5z"/></g></svg>