<svg id="Layer_5" enable-background="new 0 0 64 64" height="512" viewBox="0 0 64 64" width="512" xmlns="http://www.w3.org/2000/svg"><g><path d="m58 37h-7.731l-1-9.503c-.203-1.929-1.21-3.702-2.762-4.867l-9.116-6.837c.377-.502.609-1.118.609-1.793 0-1.063-.559-1.993-1.395-2.526l3.786-5.3c.398-.559.609-1.217.609-1.903 0-1.803-1.468-3.271-3.272-3.271h-7.947c-1.355 0-2.484.977-2.728 2.262l-4.318 1.438c-1.038.346-1.735 1.314-1.735 2.408 0 .908.49 1.752 1.278 2.202l4.568 2.61c-.521.541-.846 1.272-.846 2.08 0 .675.232 1.291.609 1.793l-9.116 6.837c-1.552 1.165-2.559 2.938-2.762 4.867l-1 9.503h-7.731c-2.757 0-5 2.243-5 5v16c0 2.757 2.243 5 5 5h52c2.757 0 5-2.243 5-5v-16c0-2.757-2.243-5-5-5zm-30-23c0-.552.449-1 1-1h6c.551 0 1 .448 1 1s-.449 1-1 1h-6c-.551 0-1-.448-1-1zm6 3c.551 0 1 .448 1 1s-.449 1-1 1-1-.448-1-1 .449-1 1-1zm-4.219-14h7.947c.701 0 1.272.57 1.272 1.271 0 .267-.082.522-.237.74l-4.278 5.989h-3.705l-1.757-7.028c-.015-.064-.023-.127-.023-.191 0-.43.35-.781.781-.781zm-6.781 4.108c0-.232.147-.438.368-.511l3.924-1.308 1.337 5.346-5.359-3.061c-.166-.095-.27-.273-.27-.466zm-6.279 20.598c.145-1.377.864-2.645 1.973-3.477l9.639-7.229h.667 2.184c-.112.314-.184.648-.184 1v12h2v-9.184c.314.112.648.184 1 .184s.686-.072 1-.184v13.184h2v-16l8.307 6.229c1.108.832 1.828 2.1 1.973 3.477l1.703 16.177c-.477 1.265-3.96 9.117-16.983 9.117-13.111 0-16.504-7.799-16.982-9.112zm-10.721 11.294h7.521l-.536 5.095.058.192c.094.314 1.803 5.7 8.522 8.713h-15.565c-1.13 0-2.162.391-3 1.026v-12.026c0-1.654 1.346-3 3-3zm55 19c0 1.654-1.346 3-3 3h-52c-1.654 0-3-1.346-3-3s1.346-3 3-3h51v1c0 .552-.449 1-1 1h-51v2h51c1.654 0 3-1.346 3-3v-1.112c.737-.151 1.419-.453 2-.89zm0-8c0 1.654-1.346 3-3 3h-15.564c6.718-3.013 8.427-8.399 8.522-8.713l.058-.192-.537-5.095h7.521c1.654 0 3 1.346 3 3z"/><path d="m46.817 43.883.126-.259-.603-5.729-1.989.209.542 5.146c-.813 1.497-3.148 4.515-9.052 5.462l.317 1.975c7.174-1.152 9.844-5.142 10.659-6.804z"/><path d="m34.018 48.925c-.651.05-1.33.075-2.018.075v2c.739 0 1.469-.027 2.171-.081z"/></g></svg>