<svg id="Layer_5" enable-background="new 0 0 64 64" height="512" viewBox="0 0 64 64" width="512" xmlns="http://www.w3.org/2000/svg"><g><path d="m36 45h-8c-1.654 0-3 1.346-3 3v1c0 3.86 3.141 7 7 7s7-3.14 7-7v-1c0-1.654-1.346-3-3-3zm1 4c0 2.757-2.243 5-5 5s-5-2.243-5-5v-1c0-.551.448-1 1-1h8c.552 0 1 .449 1 1z"/><path d="m22 34c-1.654 0-3 1.346-3 3s1.346 3 3 3 3-1.346 3-3-1.346-3-3-3zm0 4c-.552 0-1-.449-1-1s.448-1 1-1 1 .449 1 1-.448 1-1 1z"/><path d="m42 34c-1.654 0-3 1.346-3 3s1.346 3 3 3 3-1.346 3-3-1.346-3-3-3zm0 4c-.552 0-1-.449-1-1s.448-1 1-1 1 .449 1 1-.448 1-1 1z"/><path d="m49.968 9.523-2.403-.437-.365-.486c-3.569-4.759-9.251-7.6-15.2-7.6-14.888 0-27 12.112-27 27v8c0 3.536 2.638 6.46 6.047 6.927.49 11.148 9.687 20.073 20.953 20.073s20.463-8.925 20.953-20.073c3.409-.467 6.047-3.391 6.047-6.927v-15.654c0-5.32-3.799-9.871-9.032-10.823zm7.032 15.477h-2v-4h2zm-11.399-15.2.835 1.114 3.175.577c3.832.697 6.717 3.755 7.282 7.509h-2.076c-.414-1.161-1.514-2-2.816-2h-4c-1.302 0-2.402.839-2.816 2h-2.185c0-1.654-1.346-3-3-3h-4v-12.515c3.794.926 7.222 3.143 9.601 6.315zm6.399 17.2h-4c-.552 0-1-.449-1-1v-6c0-.551.448-1 1-1h4c.552 0 1 .449 1 1v6c0 .551-.448 1-1 1zm-7-2h-2v-4h2zm-5-7c.552 0 1 .449 1 1v8c0 .551-.448 1-1 1h-16c-.552 0-1-.449-1-1v-8c0-.551.448-1 1-1zm-6-14.88v12.88h-4v-12.913c.661-.052 1.326-.087 2-.087.672 0 1.339.041 2 .12zm-6 .204v12.676h-4c-1.654 0-3 1.346-3 3h-12.317c3.156-8.15 10.463-14.246 19.317-15.676zm-7 21.676h-13.814c.165-1.37.44-2.706.818-4h12.996zm-14 3c0-.335.012-.668.025-1h3.975v2.08c-1.556.224-2.949.956-4 2.031zm0 8c0-2.414 1.721-4.434 4-4.899v9.798c-2.279-.465-4-2.485-4-4.899zm25 25c-10.477 0-19-8.523-19-19v-15h8c0 1.654 1.346 3 3 3h16c1.654 0 3-1.346 3-3h2.184c.414 1.161 1.514 2 2.816 2h3v13c0 10.477-8.523 19-19 19zm21-20.101v-9.798c2.279.465 4 2.484 4 4.899s-1.721 4.434-4 4.899zm0-11.819v-.264c.847-.302 1.514-.969 1.816-1.816h2.184v4.111c-1.051-1.075-2.444-1.807-4-2.031z"/><path d="m32 26c1.654 0 3-1.346 3-3s-1.346-3-3-3-3 1.346-3 3 1.346 3 3 3zm0-4c.552 0 1 .449 1 1s-.448 1-1 1-1-.449-1-1 .448-1 1-1z"/><path d="m25 22h2v2h-2z"/><path d="m37 22h2v2h-2z"/></g></svg>