<svg height="512" viewBox="0 0 60 60" width="512" xmlns="http://www.w3.org/2000/svg"><g id="043---Jumper"><path id="Shape" d="m52.27 13.06c-.9865359-2.5267261-2.9571827-4.54429304-5.46-5.59-2.2690427-.95265127-4.6096188-1.72504137-7-2.31l-.71-3.55c-.188737-.95023155-1.0313839-1.62856236-2-1.61h-14.28c-.9686161-.01856236-1.811263.65976845-2 1.61l-.71 3.55c-2.3903812.58495863-4.7309573 1.35734873-7 2.31-2.4532887 1.05383746-4.38325225 3.0450126-5.36 5.53l-6.75 15.18c-.67011282 1.7419377-1.00925181 3.5936366-1 5.46v19.36c0 1.1045695.8954305 2 2 2h7c1.1045695 0 2-.8954305 2-2v-14.7c0-3.6 1.3-5.66 2.85-8.77l-.85 26.27c-.0102977.3793222.1949873.7317926.53.91 3.27 1.73 6.65 2.84 12.47 3.18 2.6646007.1484485 5.3353993.1484485 8 0 .82 0 4.24-.4 4-.4h.12c2.9233041-.424684 5.7494597-1.3588384 8.35-2.76.3416768-.1813925.5480857-.5435816.53-.93l-.85-26.27c1.55 3.11 2.85 5.18 2.85 8.77v14.7c0 1.1045695.8954305 2 2 2h7c1.1045695 0 2-.8954305 2-2v-19.36c.0140804-1.8830335-.325116-3.7520054-1-5.51zm-50.27 39.94v-2h7v2zm13.08.47c.6066667.28 1.2466667.54 1.92.78v1.87c-.68-.27-1.34-.57-2-.89zm17.92 2.47v2c-.63 0-1.3 0-2 .05v-1.99c.69 0 1.37 0 2-.06zm8-1.07v1.93c-.63.19-1.29.35-2 .49v-2c.71-.1 1.37-.29 2-.42zm-4 2.74c-.63.09-1.29.16-2 .21v-2c.7 0 1.37-.12 2-.2zm-8 .39c-.7 0-1.37 0-2-.05v-2c.63 0 1.31 0 2 .05zm-4-.17c-.71 0-1.37-.12-2-.21v-2c.63.08 1.3.15 2 .2zm-4-.53c-.71-.14-1.37-.3-2-.49v-1.94c.63.17 1.29.32 2 .45zm22-1.17v-1.88c.6666667-.24 1.3066667-.5 1.92-.78l.08 1.76c-.66.32-1.32.62-2 .89zm2.89-31.57c-.2092046-.4086243-.669756-.6223246-1.1168644-.5182358-.4471085.1040887-.7659194.4992278-.7731356.9582358l.85 26.26c-3.46 1.74-7.17 2.74-14.85 2.74s-11.39-1-14.85-2.71l.85-26.29c.0114952-.4665332-.3012271-.8789892-.7535427-.993863s-.9239486.0983808-1.1364573.513863l-3.53 7.08c-1.03447533 2.0822648-1.57513412 4.3749318-1.58 6.7v10.7h-7v-15.36c.0022937-1.5879276.30072967-3.161499.88-4.64l6.71-15.21c.7993757-2.0287477 2.3922394-3.6432831 4.41-4.47 2.3259344-.98670863 4.7355579-1.76314289 7.2-2.32.406384-.07568642.7243136-.393616.8-.8l.82-4.2h2.18v3c0 .55228475.4477153 1 1 1s1-.44771525 1-1v-3h2v4c0 .55228475.4477153 1 1 1s1-.44771525 1-1v-4h2v3c0 .55228475.4477153 1 1 1s1-.44771525 1-1v-3h2.18l.82 4.2c.0756864.406384.393616.72431358.8.8 2.4821011.56045219 4.9085969 1.34362462 7.25 2.34 2.0104902.8448649 3.5889331 2.4738757 4.37 4.51l6.69 15.05c.589715 1.5106585.8915752 3.1183186.89 4.74v15.36h-7v-10.7c-.0048659-2.3250682-.5455247-4.6177352-1.58-6.7zm5.11 28.44v-2h7v2z"/><path id="Shape" d="m35.56 7.1c-1.7725695.67600847-3.664685.98228616-5.56.9-1.8953814.08342133-3.7877257-.22289339-5.56-.9-.4909683-.22551522-1.0722858-.02027335-1.3128266.46351082-.2405407.48378416-.0533137 1.07115151.4228266 1.32648918 3 1.47 9.94 1.47 12.9 0 .4761403-.25533767.6633673-.84270502.4228266-1.32648918-.2405408-.48378417-.8218583-.68902604-1.3128266-.46351082z"/></g></svg>