<?xml version="1.0" encoding="iso-8859-1"?>
<!-- Generator: Adobe Illustrator 19.0.0, SVG Export Plug-In . SVG Version: 6.00 Build 0)  -->
<svg version="1.1" id="Capa_1" xmlns="http://www.w3.org/2000/svg" xmlns:xlink="http://www.w3.org/1999/xlink" x="0px" y="0px"
	 viewBox="0 0 406.904 406.904" style="enable-background:new 0 0 406.904 406.904;" xml:space="preserve">
<g>
	<g>
		<path d="M223.922,60.384c-6.2-15.28-12.24-30.28,2.16-50.24c1.982-2.927,1.215-6.906-1.712-8.888
			c-0.016-0.011-0.032-0.022-0.048-0.032c-2.848-2.005-6.776-1.365-8.84,1.44c-18.56,25.76-11.16,44-3.64,62.56
			c6.36,15.68,12.84,31.72-2.48,53.84c-2.01,2.916-1.276,6.91,1.64,8.92c2.916,2.01,6.91,1.276,8.92-1.64
			C239.202,98.344,231.402,79.264,223.922,60.384z"/>
	</g>
</g>
<g>
	<g>
		<path d="M278.962,60.384c-6.2-15.28-12.24-30.28,2.16-50.24c2.012-2.906,1.288-6.893-1.618-8.905
			c-0.007-0.005-0.014-0.01-0.022-0.015c-2.859-2.079-6.861-1.446-8.94,1.412c-0.007,0.009-0.013,0.018-0.02,0.028
			c-18.56,25.76-11.16,44-3.64,62.56c6.36,15.68,12.84,31.72-2.48,53.84c-2.01,2.916-1.276,6.91,1.64,8.92s6.91,1.276,8.92-1.64
			C294.242,98.344,286.442,79.264,278.962,60.384z"/>
	</g>
</g>
<g>
	<g>
		<path d="M327.242,154.144h-218.88c-16.815,0.044-30.436,13.665-30.48,30.48c0.051,15.33,11.439,28.256,26.64,30.24v4.28
			c-33.904,3.526-58.53,33.87-55.004,67.774c3.081,29.621,26.874,52.818,56.564,55.146c7.632,37.642,40.673,64.733,79.08,64.84
			h65.28c44.475-0.11,80.508-36.125,80.64-80.6v-111.44c15.201-1.984,26.589-14.91,26.64-30.24
			C357.678,167.809,344.057,154.188,327.242,154.144z M104.402,326.304v1.16c0,0.44,0,0.88,0,1.32c-10.585-1.38-20.423-6.2-28-13.72
			c-19.085-19.061-19.104-49.985-0.042-69.07c7.571-7.58,17.424-12.461,28.042-13.89V326.304z M250.442,394.064h-65.32
			c-37.306-0.131-67.541-30.294-67.76-67.6v-111.36h200.8l0.04,111.2C318.07,363.672,287.81,393.933,250.442,394.064z
			 M344.842,184.664c-0.044,9.702-7.898,17.556-17.6,17.6h-218.88c-9.702-0.044-17.556-7.898-17.6-17.6
			c0.044-9.702,7.898-17.556,17.6-17.6h218.88C336.944,167.108,344.798,174.962,344.842,184.664L344.842,184.664z"/>
	</g>
</g>
<g>
	<g>
		<path d="M168.762,60.384c-6.2-15.28-12.24-30.28,2.16-50.24c2.012-2.906,1.288-6.893-1.618-8.905
			c-0.007-0.005-0.014-0.01-0.022-0.015c-2.859-2.079-6.861-1.446-8.94,1.412c-0.007,0.009-0.013,0.018-0.02,0.028
			c-18.56,25.76-11.16,44-3.64,62.56c6.36,15.68,12.84,31.72-2.48,53.84c-2.01,2.916-1.276,6.91,1.64,8.92
			c2.916,2.01,6.91,1.276,8.92-1.64C184.042,98.344,176.242,79.264,168.762,60.384z"/>
	</g>
</g>
<g>
</g>
<g>
</g>
<g>
</g>
<g>
</g>
<g>
</g>
<g>
</g>
<g>
</g>
<g>
</g>
<g>
</g>
<g>
</g>
<g>
</g>
<g>
</g>
<g>
</g>
<g>
</g>
<g>
</g>
</svg>
