<svg id="Capa_1" enable-background="new 0 0 512 512" height="512" viewBox="0 0 512 512" width="512" xmlns="http://www.w3.org/2000/svg"><path d="m345.22 306.21c-4.237 0-8.107-2.785-9.47-6.79-1.324-3.891-.067-8.299 3.099-10.919 3.125-2.585 7.625-3.001 11.179-1.055 3.614 1.979 5.701 6.149 5.076 10.23-.739 4.829-4.977 8.534-9.884 8.534z"/><path d="m281.623 129.086h-188.163c-5.523 0-10-4.478-10-10s4.477-10 10-10h188.163c5.522 0 10 4.478 10 10s-4.478 10-10 10z"/><path d="m281.623 241.349h-188.163c-5.523 0-10-4.478-10-10s4.477-10 10-10h188.163c5.522 0 10 4.478 10 10s-4.478 10-10 10z"/><path d="m281.623 305.362h-188.163c-5.523 0-10-4.478-10-10s4.477-10 10-10h188.163c5.522 0 10 4.478 10 10s-4.478 10-10 10z"/><path d="m220.354 369.377h-126.894c-5.523 0-10-4.478-10-10 0-5.523 4.477-10 10-10h126.894c5.523 0 10 4.477 10 10 0 5.522-4.477 10-10 10z"/><path d="m319.023 20.012h-25.222v-10.012c0-5.523-4.478-10-10-10s-10 4.477-10 10v10.012h-43.447v-10.012c0-5.523-4.477-10-10-10s-10 4.477-10 10v10.012h-43.447v-10.012c0-5.523-4.477-10-10-10s-10 4.477-10 10v10.012h-43.447v-10.012c0-5.523-4.477-10-10-10s-10 4.477-10 10v10.012h-25.222c-19.957 0-36.193 16.236-36.193 36.193v419.602c0 19.957 16.236 36.193 36.193 36.193h260.784c19.958 0 36.194-16.236 36.194-36.193v-134.577c0-5.522-4.477-10-10-10-5.522 0-10 4.478-10 10v134.576c0 8.929-7.265 16.193-16.194 16.193h-260.784c-8.929 0-16.193-7.265-16.193-16.193v-419.601c0-8.929 7.264-16.193 16.193-16.193h25.222v11.977c0 5.522 4.477 10 10 10s10-4.478 10-10v-11.977h43.447v11.977c0 5.522 4.477 10 10 10s10-4.478 10-10v-11.977h43.447v11.977c0 5.522 4.477 10 10 10s10-4.478 10-10v-11.977h43.447v11.977c0 5.522 4.478 10 10 10s10-4.478 10-10v-11.977h25.222c8.93 0 16.194 7.265 16.194 16.193v194.612c0 5.522 4.478 10 10 10 5.523 0 10-4.478 10-10v-194.612c0-19.957-16.237-36.193-36.194-36.193z"/><path d="m489.955 449.351-.087-395.572c-.006-18.061-14.704-32.759-32.761-32.765l-28.397-.02h-.01c-8.754 0-16.984 3.409-23.175 9.6-6.193 6.193-9.603 14.427-9.6 23.185l.087 395.542v.531c0 2.072.645 4.094 1.843 5.785l36.983 52.148c1.875 2.644 4.916 4.215 8.157 4.215s6.282-1.571 8.157-4.215l36.959-52.114c1.199-1.691 1.843-3.713 1.843-5.785v-.535zm-20.073-346.675.008 32.849h-53.942l-.008-32.874 26.644.012zm-53.931 52.849h53.942l.056 267.716-4.508-5.021c-1.962-2.186-4.758-3.397-7.724-3.315-2.936.083-5.689 1.454-7.524 3.747l-7.212 9.011-7.227-9.027c-1.836-2.293-4.588-3.663-7.524-3.746-.094-.003-.188-.004-.282-.004-2.835 0-5.542 1.204-7.441 3.319l-4.5 5.012zm3.716-110.79c2.413-2.412 5.621-3.741 9.029-3.741h.004l28.398.02c7.039.002 12.768 5.731 12.77 12.771l.009 28.892-26.597-.012-27.345-.013-.009-28.879c-.001-3.415 1.328-6.624 3.741-9.038zm23.329 439.979-24.415-34.426 8.93-9.947 7.664 9.574c1.898 2.37 4.771 3.75 7.807 3.75 3.037 0 5.909-1.38 7.808-3.751l7.648-9.557 8.948 9.965z"/></svg>