<svg height="480pt" viewBox="0 -48 480 480" width="480pt" xmlns="http://www.w3.org/2000/svg"><path d="m95.199219 90.398438 16.800781 16.800781v20.800781h16v-48h224v72h16v-36.800781l16.800781-16.800781c1.597657-1.597657 3.199219-2.398438 5.597657-2.398438h17.601562v-16h-17.601562c-6.398438 0-12.796876 2.398438-16.796876 7.199219l-5.601562 5.601562v-36.800781c0-13.601562-10.398438-24-24-24h-64v-8c0-13.601562-10.398438-24-24-24h-32c-13.601562 0-24 10.398438-24 24v8h-64c-13.601562 0-24 10.398438-24 24v28.800781l-5.601562-5.601562c-4.796876-4.800781-10.398438-7.199219-16.796876-7.199219h-17.601562v16h17.601562c1.597657 0 4 .800781 5.597657 2.398438zm120.800781-66.398438c0-4.800781 3.199219-8 8-8h32c4.800781 0 8 3.199219 8 8v8h-48zm-80 24h208c4.800781 0 8 3.199219 8 8v8h-224v-8c0-4.800781 3.199219-8 8-8zm0 0"/><path d="m288 248v-16h-20c-4.800781 0-9.601562 2.398438-12 5.601562v-37.601562c0-13.601562-10.398438-24-24-24h-48v-8c0-13.601562-10.398438-24-24-24h-32c-13.601562 0-24 10.398438-24 24v8h-48c-13.601562 0-24 10.398438-24 24v29.601562c-3.199219-3.203124-7.199219-5.601562-12-5.601562h-20v16h20l12 18.398438v101.601562c0 13.601562 10.398438 24 24 24h176c13.601562 0 24-10.398438 24-24v-93.601562l12-18.398438zm-168-80c0-4.800781 3.199219-8 8-8h32c4.800781 0 8 3.199219 8 8v8h-48zm-64 24h176c4.800781 0 8 3.199219 8 8v8h-192v-8c0-4.800781 3.199219-8 8-8zm176 176h-176c-4.800781 0-8-3.199219-8-8v-136h192v136c0 4.800781-3.199219 8-8 8zm0 0"/><path d="m460 248c-4.800781 0-9.601562 2.398438-12 5.601562v-29.601562c0-13.601562-10.398438-24-24-24h-48v-8c0-13.601562-10.398438-24-24-24h-16c-13.601562 0-24 10.398438-24 24v8h-40v16h152c4.800781 0 8 3.199219 8 8v16h-128v16h128v104c0 4.800781-3.199219 8-8 8h-152v16h152c13.601562 0 24-10.398438 24-24v-77.601562l12-18.398438h20v-16zm-132-56c0-4.800781 3.199219-8 8-8h16c4.800781 0 8 3.199219 8 8v8h-32zm0 0"/></svg>