<svg id="Layer_5" enable-background="new 0 0 64 64" height="512" viewBox="0 0 64 64" width="512" xmlns="http://www.w3.org/2000/svg"><path d="m52 31h-1.039l-1.961-23v-7h-34l.004 6.915-1.965 23.085h-1.039c-1.654 0-3 1.346-3 3v10c0 1.545 1.178 2.805 2.68 2.968l-.665 7.826c-.01.109-.015.219-.015.328 0 .992.385 1.889 1 2.575v3.303c0 1.103.897 2 2 2h8c1.103 0 2-.897 2-2v-2.264c1.227-.474 2.168-1.551 2.419-2.908l4.112-22.203c.074-.402.192-.789.332-1.167 2.038.99 3.506 2.926 3.866 5.18l2.896 18.098c.221 1.384 1.146 2.483 2.375 2.978v2.286c0 1.103.897 2 2 2h8c1.103 0 2-.897 2-2v-3.303c.615-.686 1-1.583 1-2.575 0-.109-.005-.219-.015-.329l-.665-7.825c1.502-.163 2.68-1.423 2.68-2.968v-10c0-1.654-1.346-3-3-3zm1 3v3h-4v-4h3c.552 0 1 .448 1 1zm-5.918-25 .423 4.97c-2.248-.266-4.058-2.328-4.43-4.97zm-.081-6 .002 4h-11.537c-.282-.774-.466-1.454-.466-2h-2c0 .622.139 1.29.359 2h-2.718c.22-.71.359-1.378.359-2h-2c0 .546-.184 1.226-.466 2h-11.534v-4zm-26.076 6c-.372 2.643-2.183 4.705-4.432 4.97l.422-4.97zm-8.925 24h3v4h-4v-3c0-.552.448-1 1-1zm-1 11v-5h4v6h-3c-.552 0-1-.448-1-1zm3 17v-2.109c.283.066.575.109.878.109h7.122v2zm22.704-23.679c-.45-2.815-2.242-5.246-4.746-6.552l1.803-2.122-1.469-1.354-1.243 1.243c-.292.292-.564.61-.817.95-.838 1.109-1.412 2.392-1.668 3.776l-4.112 22.203c-.164.889-.94 1.535-1.846 1.535h-7.729c-1.034 0-1.877-.843-1.877-1.878 0-.053.003-.107.007-.159l.677-7.963h3.316v-16h-1.955l1.276-15.019c3.417-.178 6.199-3.161 6.618-6.981h4.777c-.042.097-.082.191-.125.289-1.153 2.668-2.591 5.989-2.591 9.711v4h2v-4c0-3.308 1.29-6.287 2.428-8.917.161-.372.315-.73.463-1.083h4.218c.148.353.302.711.463 1.083 1.138 2.63 2.428 5.609 2.428 8.917h2c0-3.722-1.438-7.043-2.592-9.711-.042-.098-.083-.192-.125-.289h4.777c.419 3.819 3.2 6.801 6.615 6.981l1.28 15.019h-1.955v16h3.316l.677 7.962c.004.053.007.107.007.16 0 1.035-.843 1.878-1.878 1.878h-7.668c-.928 0-1.708-.665-1.854-1.581zm5.296 23.679v-2h7.122c.303 0 .595-.043.878-.109v2.109zm10-16h-3v-6h4v5c0 .552-.448 1-1 1z"/></svg>