<svg id="Layer_3" enable-background="new 0 0 64 64" height="512" viewBox="0 0 64 64" width="512" xmlns="http://www.w3.org/2000/svg"><g><path d="m55.62 28.548c-1.856-4.085-5.185-7.222-9.373-8.832l-6.247-2.403v-8.313c0-4.411-3.589-8-8-8s-8 3.589-8 8v8.313l-6.246 2.402c-4.189 1.61-7.518 4.747-9.374 8.832l-7.29 16.039c-.141.31-.114.67.069.955.185.286.501.459.841.459h10c.39 0 .744-.227.908-.581l4.092-8.866v25.447c0 .553.447 1 1 1h28c.553 0 1-.447 1-1v-25.447l4.092 8.866c.164.354.518.581.908.581h10c.34 0 .656-.173.841-.459.184-.285.21-.646.069-.955zm-3.122-1.46-2.498 2.498-1.586-1.586 2.668-2.668c.513.548.988 1.132 1.416 1.756zm-39.58-1.756 2.668 2.668-1.586 1.586-2.498-2.498c.428-.624.903-1.208 1.416-1.756zm-1.558 18.668h-7.807l.909-2h7.822zm7.64-9h8v2h-8zm0 10h26v2h-26zm0 4h26v8h-26zm0 12v-2h26v2zm26-24h-8v-2h8zm1.908-5.419c-.196-.426-.656-.659-1.123-.558-.458.101-.785.507-.785.977v1h-9c-.553 0-1 .447-1 1v4c0 .553.447 1 1 1h9v4h-26v-4h9c.553 0 1-.447 1-1v-4c0-.553-.447-1-1-1h-9v-1c0-.47-.327-.876-.785-.977-.465-.099-.926.133-1.123.558l-3.886 8.419h-7.835l4.829-10.624c.079-.173.174-.334.259-.503l2.834 2.834c.195.195.451.293.707.293s.512-.098.707-.293l3-3c.391-.391.391-1.023 0-1.414l-3.328-3.328c1.217-.991 2.588-1.803 4.093-2.382l6.888-2.649c.385-.149.64-.52.64-.934v-9c0-3.309 2.691-6 6-6s6 2.691 6 6v9c0 .414.255.785.641.934l6.889 2.649c1.505.579 2.875 1.391 4.092 2.382l-3.328 3.328c-.391.391-.391 1.023 0 1.414l3 3c.194.195.45.293.706.293s.512-.098.707-.293l2.834-2.834c.084.169.18.33.259.503l4.829 10.624h-7.835zm5.732 12.419-.923-2h7.822l.909 2z"/><path d="m37 24c0 .552-.448 1-1 1s-1-.448-1-1v-5.184c1.161-.414 2-1.514 2-2.816v-7c0-2.757-2.243-5-5-5s-5 2.243-5 5v7c0 1.302.839 2.402 2 2.816v5.184c0 .552-.448 1-1 1s-1-.448-1-1v-2h-2v2c0 1.654 1.346 3 3 3s3-1.346 3-3v-5h2v5c0 1.654 1.346 3 3 3s3-1.346 3-3v-2h-2zm-8-15c0-1.654 1.346-3 3-3s3 1.346 3 3v7c0 .552-.448 1-1 1h-4c-.552 0-1-.448-1-1z"/><path d="m16 11c2.206 0 4-1.794 4-4 0-.858-.284-1.71-.8-2.399l-2.4-3.2c-.377-.504-1.223-.504-1.6 0l-2.401 3.201c-.515.688-.799 1.54-.799 2.398 0 2.206 1.794 4 4 4zm-1.601-5.2 1.601-2.133 1.6 2.132c.257.346.4.771.4 1.201 0 1.103-.897 2-2 2s-2-.897-2-2c0-.43.143-.855.399-1.2z"/><path d="m5 23c2.206 0 4-1.794 4-4 0-.858-.284-1.71-.8-2.399l-2.4-3.2c-.377-.504-1.223-.504-1.6 0l-2.401 3.201c-.515.688-.799 1.54-.799 2.398 0 2.206 1.794 4 4 4zm-1.601-5.2 1.601-2.133 1.6 2.132c.257.346.4.771.4 1.201 0 1.103-.897 2-2 2s-2-.897-2-2c0-.43.143-.855.399-1.2z"/><path d="m48 11c2.206 0 4-1.794 4-4 0-.858-.284-1.71-.8-2.399l-2.4-3.2c-.377-.504-1.223-.504-1.6 0l-2.401 3.201c-.515.688-.799 1.54-.799 2.398 0 2.206 1.794 4 4 4zm-1.601-5.2 1.601-2.133 1.6 2.132c.257.346.4.771.4 1.201 0 1.103-.897 2-2 2s-2-.897-2-2c0-.43.143-.855.399-1.2z"/><path d="m59 23c2.206 0 4-1.794 4-4 0-.858-.284-1.71-.8-2.399l-2.4-3.2c-.377-.504-1.223-.504-1.6 0l-2.401 3.201c-.515.688-.799 1.54-.799 2.398 0 2.206 1.794 4 4 4zm-1.601-5.2 1.601-2.133 1.6 2.132c.257.346.4.771.4 1.201 0 1.103-.897 2-2 2s-2-.897-2-2c0-.43.143-.855.399-1.2z"/></g></svg>