<svg height="682pt" viewBox="-56 -21 682 682.66669" width="682pt" xmlns="http://www.w3.org/2000/svg"><path d="m184.566406 117.570312c-6.292968 17.042969-2.816406 36.335938 9.683594 49.835938 25.960938 28.042969 56 42.261719 89.277344 42.261719 32.964844 0 62.769531-13.96875 88.589844-41.523438 12.621093-13.472656 16.726562-33.410156 10.3125-50.722656-5.621094-15.15625-20.351563-25.34375-36.65625-25.34375h-124.492188c-16.328125 0-31.085938 10.246094-36.714844 25.492187zm180.289063 6.394532.066406.175781c3.960937 10.734375 1.476563 22.6875-6.488281 31.179687-22.132813 23.621094-47.339844 35.597657-74.90625 35.597657-27.84375 0-53.253906-12.199219-75.519532-36.246094-7.523437-8.125-9.882812-19.53125-6.160156-29.765625 3.027344-8.257812 10.464844-14.078125 19.433594-14.078125h124.492188c8.5 0 16.167968 5.269531 19.082031 13.136719zm0 0"/><path d="m240.136719 68.132812v-9.535156c0-5.175781-4.191407-9.375-9.375-9.375-5.175781 0-9.375 4.199219-9.375 9.375v9.535156c0 5.179688 4.199219 9.375 9.375 9.375s9.375-4.195312 9.375-9.375zm0 0"/><path d="m345.519531 68.132812v-9.535156c0-5.175781-4.199219-9.375-9.375-9.375-5.179687 0-9.375 4.199219-9.375 9.375v9.535156c0 5.179688 4.195313 9.375 9.375 9.375 5.175781 0 9.375-4.195312 9.375-9.375zm0 0"/><path d="m283.453125 82.597656c7.773437 0 15.082031-3.261718 20.0625-8.957031 3.40625-3.898437 3.007813-9.820313-.890625-13.230469s-9.820312-3.007812-13.230469.886719c-1.414062 1.625-3.582031 2.550781-5.945312 2.550781-2.359375 0-4.53125-.925781-5.941407-2.550781-3.410156-3.894531-9.332031-4.289063-13.234374-.882813-3.894532 3.410157-4.292969 9.332032-.882813 13.226563 4.976563 5.695313 12.289063 8.957031 20.0625 8.957031zm0 0"/><path d="m404.445312 512.921875v-50.011719c0-11.308594-9.203124-20.507812-20.511718-20.507812h-50.867188c-11.316406 0-20.519531 9.199218-20.519531 20.507812v50.011719c0 21.75 17.703125 39.453125 39.464844 39.453125h12.976562c21.757813 0 39.457031-17.703125 39.457031-39.453125zm-73.148437-50.011719c0-.964844.789063-1.757812 1.769531-1.757812h50.867188c.96875 0 1.761718.792968 1.761718 1.757812v12.238282h-54.398437zm54.398437 50.011719c0 11.414063-9.292968 20.703125-20.707031 20.703125h-12.976562c-11.425781 0-20.714844-9.289062-20.714844-20.703125v-19.023437h54.398437zm0 0"/><path d="m202.0625 552.375h12.976562c21.765626 0 39.46875-17.703125 39.46875-39.453125v-50.011719c0-11.308594-9.207031-20.507812-20.523437-20.507812h-50.867187c-11.308594 0-20.511719 9.199218-20.511719 20.507812v50.011719c0 21.75 17.699219 39.453125 39.457031 39.453125zm33.695312-39.453125c0 11.414063-9.296874 20.703125-20.71875 20.703125h-12.976562c-11.417969 0-20.707031-9.289062-20.707031-20.703125v-19.023437h54.402343zm-54.402343-50.011719c0-.964844.789062-1.757812 1.761719-1.757812h50.867187c.976563 0 1.773437.792968 1.773437 1.757812v12.238282h-54.402343zm0 0"/><path d="m65.253906 280.03125-66.457031 260.890625c-3.328125 13.066406 4.054687 26.753906 16.808594 31.164063 0 0 40.359375 13.90625 40.363281 13.90625 13.75 4.742187 29.058594-2.953126 33.445312-16.8125l46.324219-146.296876s-16.976562 184.503907-16.980469 184.582032c-1.582031 17.214844 12.390626 32.535156 29.667969 32.535156h201.777344c5.179687 0 9.375-4.199219 9.375-9.375s-4.195313-9.375-9.375-9.375h-57.375v-368.886719c.726563-.042969 1.449219-.101562 2.179687-.15625 8.957032-.664062 17.871094-2.105469 26.574219-4.335937 1.851563 4.859375 3.527344 9.789062 5.070313 14.753906 6.992187 22.277344 11.996094 45.457031 12.640625 68.851562 0 .066407.003906.128907.011719.199219.378906 13.851563 12.253906 24.636719 26.015624 24.035157 13.207032-.574219 23.742188-12.160157 23.40625-25.300782-.570312-22.484375-4.695312-44.457031-10.136718-66.222656-3.007813-12.023438-6.878906-23.890625-11.375-35.441406-.070313-.175782-.136719-.347656-.207032-.527344-.015624-.03125-.027343-.070312-.039062-.097656-.007812-.027344-.019531-.054688-.027344-.074219 1.042969-.660156 2.078125-1.335937 3.113282-2.027344 8.058593-5.332031 15.792968-11.503906 22.894531-18.050781l49.621093 25.316406c20.433594 10.425782 35.398438 29.152344 41.058594 51.371094l66.449219 260.898438c.945313 3.6875-1.144531 7.554687-4.753906 8.800781 0 0-40.335938 13.90625-40.367188 13.917969-3.890625 1.339843-8.203125-.835938-9.441406-4.753907l-72.578125-229.164062c-1.441406-4.558594-6.101562-7.304688-10.792969-6.355469-4.691406.945312-7.917969 5.28125-7.480469 10.046875 0 0 24.933594 270.800781 24.960938 271.140625.589844 6.402344-4.574219 12.0625-10.996094 12.0625h-30.925781c-5.175781 0-9.375 4.199219-9.375 9.375s4.199219 9.375 9.375 9.375h30.925781c17.28125 0 31.253906-15.320312 29.667969-32.53125l-16.992187-184.585938s46.300781 146.1875 46.332031 146.300782c4.371093 13.808594 19.738281 21.550781 33.445312 16.8125l40.359375-13.917969c12.765625-4.402344 20.148438-18.09375 16.800782-31.160156l-66.445313-260.886719c-6.984375-27.445312-25.46875-50.574219-50.707031-63.449219l-44.421875-22.667969c21.476562-25.382812 27.707031-59.867187 16.152343-91.15625-10.269531-27.804687-24.933593-50.554687-43.589843-67.605468-25.523438-23.324219-57.726563-35.152344-95.703125-35.152344-43.285156 0-78.863282 15.242188-105.742188 45.316406-3.449218 3.859375-3.117187 9.785156.742188 13.238282 3.863281 3.445312 9.789062 3.117187 13.238281-.742188 23.167969-25.917969 54.042969-39.0625 91.761719-39.0625 72.96875 0 106.460937 49.214844 121.703125 90.503906 9.640625 26.09375 3.722656 55.003906-15.445313 75.453125-10.339844 11.035157-21.984375 21.628907-35.277344 28.996094-.152343.078125-1.140624-.539063-1.34375-.621094-13.421874-5.757812-29.4375 1.894531-33.484374 15.882813-3.140626.875-6.3125 1.640625-9.515626 2.285156-17.554687 3.535156-35.808593 3.492188-53.359374-.019531-3.175782-.640625-6.320313-1.402344-9.433594-2.269531-.105469-.359376-.226563-.710938-.34375-1.0625-2.261719-6.648438-7.4375-12.25-13.929688-14.945313-6.542968-2.71875-14.230468-2.4375-20.550781.75-13.359375-8.152344-25.449219-18.371094-36.070313-29.835937-18.507812-19.992188-24.257812-48.203126-15.015624-73.636719 3.042968-8.371094 6.59375-16.382813 10.558593-23.820313 2.441407-4.566406.707031-10.242187-3.859375-12.679687-4.570312-2.441407-10.25-.714844-12.683594 3.855469-4.382812 8.214843-8.296874 17.042968-11.636718 26.242187-11.25 30.945313-4.898438 65.136719 16.507812 90.109375l-44.398437 22.644531c-25.230469 12.871094-43.707031 36-50.695313 63.449219zm272.332032-45.164062c.34375-1.960938 1.628906-3.792969 3.542968-4.589844 2.613282-1.082032 5.742188-.105469 7.28125 2.265625.507813.785156.820313 1.695312 1.160156 2.558593 3.339844 8.46875 18.214844 48.320313 20.25 91.210938.070313 1.519531.167969 3.0625.167969 4.585938 0 3.257812-2.675781 6.125-5.976562 6.125-3.855469 0-5.894531-3.289063-6.003907-6.753907-1.390624-46.121093-19.335937-90.289062-20.109374-92.1875-.421876-1.015625-.507813-2.136719-.3125-3.214843zm-108.121094 2.148437c-.070313.371094-.175782.734375-.316406 1.085937-.773438 1.875-18.75 46.136719-20.113282 92.292969-.101562 3.496094-2.347656 6.671875-6.152344 6.628907-3.183593-.039063-5.898437-2.914063-5.816406-6.125.113282-4.59375.386719-9.171876.785156-13.6875 3.589844-40.640626 17.429688-76.625 19.914063-82.828126 1.277344-3.1875 4.75-5.507812 8.164063-4.105468 2.5625 1.054687 4.03125 4.058594 3.535156 6.738281zm-55.363282-29.046875c.035157.03125.066407.058594.097657.085938 8.015625 7.410156 16.707031 14.128906 25.90625 19.996093-.007813.019531-.019531.050781-.027344.070313-.007813.023437-.019531.050781-.027344.078125-2.359375 5.980469-4.574219 12.078125-6.421875 18.242187-8.632812 27.019532-15.296875 55.984375-15.296875 84.496094 0 13.273438 10.746094 24.492188 24.058594 24.824219 13.324219.335937 24.765625-10.363281 25.324219-23.65625.738281-17.339844 3.359375-34.640625 7.59375-51.464844 2.671875-10.601563 5.824218-21.078125 9.621094-31.335937.175781-.476563.355468-.953126.535156-1.433594.464844.117187.929687.222656 1.390625.335937 8.925781 2.199219 18.046875 3.589844 27.222656 4.144531v368.898438s-125.582031 0-125.652344 0c-6.296875 0-11.59375-5.59375-10.996093-12.0625l24.945312-271.140625c.4375-4.765625-2.785156-9.101563-7.480469-10.046875-.625-.125-1.246093-.1875-1.859375-.1875-4.015625 0-7.675781 2.585938-8.933594 6.546875 0 0-72.429687 228.746094-72.558593 229.160156-1.238281 3.90625-5.597657 6.085938-9.460938 4.746094l-40.355469-13.90625c-3.609374-1.25-5.699218-5.121094-4.761718-8.8125l66.460937-260.890625c5.65625-22.226562 20.617188-40.949219 41.042969-51.371094zm0 0"/></svg>