<?xml version="1.0" encoding="iso-8859-1"?>
<!-- Generator: Adobe Illustrator 19.0.0, SVG Export Plug-In . SVG Version: 6.00 Build 0)  -->
<svg version="1.1" id="Capa_1" xmlns="http://www.w3.org/2000/svg" xmlns:xlink="http://www.w3.org/1999/xlink" x="0px" y="0px"
	 viewBox="0 0 512.005 512.005" style="enable-background:new 0 0 512.005 512.005;" xml:space="preserve">
<g>
	<g>
		<g>
			<path d="M511.853,454.741l-76.8-401.067c-0.045-0.236-0.199-0.412-0.263-0.641c-0.11-0.537-0.273-1.063-0.487-1.568
				l-12.308-24.625c-2.233-4.45-6.3-7.702-11.133-8.9c-4.899-1.196-10.076-0.195-14.175,2.742c-0.203,0.146-0.463,0.316-0.675,0.467
				H115.99c-0.21-0.149-0.463-0.315-0.663-0.458c-4.099-2.944-9.281-3.949-14.183-2.75c-4.835,1.199-8.903,4.454-11.133,8.909
				L77.703,51.466c-0.214,0.505-0.377,1.03-0.487,1.568c-0.064,0.228-0.217,0.404-0.263,0.641l-76.8,401.067
				c-0.693,3.621,1.018,7.278,4.242,9.066c3.25,1.817,80.533,44.008,167.95,26.508c3.014-0.604,5.471-2.781,6.433-5.7
				l69.217-210.425c1.189-3.39,4.416-5.637,8.008-5.575c3.487-0.099,6.655,2.017,7.9,5.275l69.325,210.725
				c0.962,2.919,3.419,5.096,6.433,5.7c14.372,2.849,28.99,4.27,43.642,4.242c43.257-0.495,85.809-11.021,124.308-30.75
				C510.835,462.019,512.546,458.362,511.853,454.741z M363.026,38.216C328.69,50.38,292.419,56.164,256.003,55.283
				c-36.416,0.881-72.685-4.903-107.021-17.067H363.026z M105.386,34.566c0.983,0.7,2.05,1.442,3.175,2.2
				C128.319,50.05,173.736,72.35,256.003,72.35s127.683-22.3,147.408-35.567c1.158-0.775,2.225-1.517,3.317-2.3l9.158,18.309
				c-14.592,10.033-62.467,36.625-159.883,36.625c-97.408,0-145.275-26.575-159.858-36.6L105.386,34.566z M91.205,70.024
				c18.602,11.669,60.893,31.507,136.501,35.623l-1.619,1.619c-8.451,8.491-11.854,20.779-8.975,32.408l5.017,20.075
				c1.152,4.558,5.775,7.324,10.336,6.185c4.561-1.139,7.34-5.754,6.214-10.318l-5.017-20.083c-1.433-5.814,0.269-11.954,4.492-16.2
				l12.954-12.954c1.67,0.015,3.198,0.104,4.896,0.104s3.227-0.089,4.896-0.104l12.954,12.954
				c4.224,4.248,5.926,10.392,4.492,16.208l-5.017,20.075c-0.748,2.96,0.143,6.094,2.336,8.218c2.193,2.124,5.354,2.913,8.289,2.07
				c2.934-0.843,5.194-3.19,5.925-6.154l5.017-20.067c2.88-11.632-0.523-23.923-8.975-32.417l-1.619-1.62
				c75.607-4.117,117.898-23.955,136.501-35.623l10.311,53.845c-17.487,15.179-69.851,50.881-175.109,50.881
				c-105.259,0-157.623-35.702-175.109-50.881L91.205,70.024z M347.861,474.492l-67.85-206.234
				c-3.741-10.097-13.4-16.775-24.168-16.708c-10.768,0.067-20.343,6.865-23.957,17.008l-67.742,205.934
				c-66.617,11.533-127.817-14.167-146.017-22.859l59.139-308.825c24.515,18.423,80.051,49.008,178.736,49.008
				s154.221-30.585,178.736-49.008l59.139,308.833C475.727,460.341,414.694,486.05,347.861,474.492z"/>
			<path d="M153.603,311.283c-46.433,0-70.342-22.692-70.792-23.125c-2.229-2.212-5.494-3.02-8.497-2.104
				c-3.004,0.916-5.262,3.408-5.878,6.487l-17.067,85.333c-0.374,1.861-0.116,3.794,0.733,5.492
				c13.417,26.833,43.433,31.292,61.892,31.292c5.156,0.032,10.308-0.333,15.408-1.092c3.211-0.534,5.839-2.849,6.776-5.967
				l25.6-85.333c0.775-2.584,0.282-5.382-1.328-7.546C158.839,312.557,156.3,311.282,153.603,311.283z M121.453,397.275
				c-11.758,0.875-40.633,0.783-52.742-19.108l13.8-68.966c18.055,11.098,38.583,17.538,59.742,18.742L121.453,397.275z"/>
			<path d="M429.203,288.15c-0.242,0.233-24.15,23.133-70.8,23.133c-2.697-0.001-5.236,1.274-6.847,3.438
				c-1.611,2.164-2.103,4.962-1.328,7.546l25.6,85.333c0.936,3.118,3.564,5.432,6.775,5.967c5.101,0.759,10.252,1.124,15.408,1.092
				c18.458,0,48.475-4.458,61.892-31.292c0.85-1.698,1.108-3.631,0.733-5.492l-17.067-85.333c-0.625-3.071-2.88-5.554-5.877-6.47
				C434.696,285.155,431.438,285.953,429.203,288.15L429.203,288.15z M443.294,378.166c-12.108,19.892-40.975,19.975-52.742,19.108
				l-20.8-69.333c21.159-1.204,41.687-7.644,59.742-18.742L443.294,378.166z"/>
		</g>
	</g>
</g>
<g>
</g>
<g>
</g>
<g>
</g>
<g>
</g>
<g>
</g>
<g>
</g>
<g>
</g>
<g>
</g>
<g>
</g>
<g>
</g>
<g>
</g>
<g>
</g>
<g>
</g>
<g>
</g>
<g>
</g>
</svg>
