<svg id="Capa_1" enable-background="new 0 0 512.001 512.001" height="512" viewBox="0 0 512.001 512.001" width="512" xmlns="http://www.w3.org/2000/svg"><path d="m403.524 105.95c4.143 0 7.5-3.358 7.5-7.5v-63.554c0-19.242-15.654-34.896-34.896-34.896h-18.97c-11.101 0-21 5.217-27.396 13.32-6.395-8.103-16.295-13.32-27.395-13.32h-18.97c-11.101 0-21 5.217-27.396 13.32-6.396-8.103-16.295-13.32-27.396-13.32h-18.97c-11.101 0-21 5.217-27.396 13.32-6.396-8.103-16.295-13.32-27.396-13.32h-18.97c-19.242 0-34.896 15.654-34.896 34.896v442.209c0 19.242 15.654 34.896 34.896 34.896h18.97c11.101 0 21-5.217 27.396-13.32 6.396 8.104 16.295 13.32 27.396 13.32h18.97c11.101 0 21-5.217 27.396-13.32 6.396 8.104 16.295 13.32 27.396 13.32h18.97c11.101 0 21-5.217 27.396-13.32 6.396 8.104 16.295 13.32 27.396 13.32h18.97c19.241 0 34.896-15.654 34.896-34.896 0-11.52 0-325.513 0-343.655 0-4.142-3.357-7.5-7.5-7.5s-7.5 3.358-7.5 7.5v106.618h-58.762v-61.566h4.84c15.907 0 28.963-12.925 28.963-28.962v-67.178c0-15.994-13.017-28.962-28.963-28.962h-4.84v-18.504c0-10.971 8.926-19.896 19.896-19.896h18.97c10.971 0 19.896 8.925 19.896 19.896v63.554c-.001 4.142 3.356 7.5 7.499 7.5zm-193.889-90.95h18.97c10.971 0 19.896 8.925 19.896 19.896v18.503h-58.762v-18.503c0-10.971 8.926-19.896 19.896-19.896zm-73.761 0h18.97c10.971 0 19.896 8.925 19.896 19.896v18.503h-4.84c-15.97 0-28.963 12.993-28.963 28.962v67.177c0 15.97 12.993 28.963 28.963 28.963h4.84v61.566h-58.762v-205.171c-.001-10.971 8.925-19.896 19.896-19.896zm112.626 163.501v61.566h-58.762v-61.566zm73.762 135.329h-58.762v-58.762h58.762zm-206.285-58.762h58.762v58.762h-58.762zm73.762 0h58.761v58.762h-58.762v-58.762zm-34.896 241.933h-18.97c-10.971 0-19.896-8.925-19.896-19.896v-148.275h58.762v148.275c0 10.971-8.925 19.896-19.896 19.896zm73.762 0h-18.97c-10.971 0-19.896-8.925-19.896-19.896v-148.275h58.761v148.275c0 10.971-8.924 19.896-19.895 19.896zm73.762 0h-18.97c-10.971 0-19.896-8.925-19.896-19.896v-148.275h58.762v148.275c-.001 10.971-8.926 19.896-19.896 19.896zm93.657-183.171h-11.881c-4.143 0-7.5 3.358-7.5 7.5s3.357 7.5 7.5 7.5h11.881v148.275c0 10.971-8.925 19.896-19.896 19.896h-18.97c-10.971 0-19.896-8.925-19.896-19.896v-148.275h11.881c4.143 0 7.5-3.358 7.5-7.5s-3.357-7.5-7.5-7.5h-11.881v-58.762h58.762zm-73.762-73.762h-58.762v-61.566h58.762zm19.84-171.669c7.698 0 13.963 6.263 13.963 13.963v67.176c0 7.699-6.264 13.963-13.963 13.963-20.816 0-153.396 0-172.203 0-7.699 0-13.963-6.264-13.963-13.963v-67.176c0-7.699 6.264-13.962 13.963-13.962 18.817-.001 151.382-.001 172.203-.001zm-78.602-15v-18.503c0-10.971 8.926-19.896 19.897-19.896h18.97c10.971 0 19.896 8.925 19.896 19.896v18.503z"/></svg>