<?xml version="1.0" encoding="iso-8859-1"?>
<!-- Generator: Adobe Illustrator 18.1.1, SVG Export Plug-In . SVG Version: 6.00 Build 0)  -->
<svg version="1.1" id="Capa_1" xmlns="http://www.w3.org/2000/svg" xmlns:xlink="http://www.w3.org/1999/xlink" x="0px" y="0px"
	 viewBox="0 0 26 26" style="enable-background:new 0 0 26 26;" xml:space="preserve">
<g>
	<path style="fill:#030104;" d="M19.824,0c-1.881,0-2.927,0.758-3.04,0.845c-0.037,0.028-0.071,0.059-0.104,0.092L2.662,15.138
		C0.773,16.41,0,18.492,0,20c0,3.421,2.58,6,6,6c3.454,0,5-2.354,5-4.686C11,18.733,9.261,17,6.674,17C4.545,17,3,18.418,3,20.372
		C3,21.642,4.056,23,5.628,23C7.246,23,8,21.807,8,21c0-0.553-0.448-1-1-1c-0.511,0-0.933,0.384-0.993,0.879
		C5.967,20.94,5.85,21,5.628,21C5.214,21,5,20.56,5,20.372C5,19.36,5.865,19,6.674,19C7.542,19,9,19.301,9,21.314
		C9,22.122,8.708,24,6,24c-2.318,0-4-1.683-4-4c0-0.721,0.357-2.186,1.666-3.129c0.096-0.043,0.187-0.102,0.269-0.177
		C4.621,16.277,5.535,16,6.741,16c1.706,0,2.967,0.497,3.856,1.519c1.958,2.251,1.418,6.301,1.413,6.342
		c-0.064,0.457,0.193,0.898,0.623,1.068c0.429,0.171,0.917,0.025,1.185-0.352l12-17C25.937,7.408,26,7.207,26,7
		C26,1.214,22.642,0,19.824,0z M14.497,5.995c3.937-0.505,6.394,2.801,6.253,5.291l-2.481,3.515
		c-1.078-2.917-3.597-5.183-7.009-5.527L14.497,5.995z M13.983,20.872c-0.187-1.519-0.682-3.287-1.871-4.658
		C10.839,14.745,9.032,14,6.741,14c-0.049,0-0.099,0-0.147,0.001l2.218-2.247c4.861-0.255,7.255,3.589,7.3,6.103L13.983,20.872z
		 M22.979,8.129c-0.867-2.552-3.107-4.317-5.911-4.738l0.964-0.977C18.199,2.312,18.8,2,19.824,2c2.838,0,4.099,1.406,4.172,4.688
		L22.979,8.129z"/>
</g>
<g>
</g>
<g>
</g>
<g>
</g>
<g>
</g>
<g>
</g>
<g>
</g>
<g>
</g>
<g>
</g>
<g>
</g>
<g>
</g>
<g>
</g>
<g>
</g>
<g>
</g>
<g>
</g>
<g>
</g>
</svg>
