<?xml version="1.0" encoding="iso-8859-1"?>
<!-- Generator: Adobe Illustrator 19.0.0, SVG Export Plug-In . SVG Version: 6.00 Build 0)  -->
<svg version="1.1" id="Capa_1" xmlns="http://www.w3.org/2000/svg" xmlns:xlink="http://www.w3.org/1999/xlink" x="0px" y="0px"
	 viewBox="0 0 512.001 512.001" style="enable-background:new 0 0 512.001 512.001;" xml:space="preserve">
<g>
	<g>
		<path d="M325.999,0H186.003c-39.089,0-70.891,31.802-70.891,70.891v179.092V441.11c0,39.089,31.801,70.891,70.891,70.891h139.995
			c39.089,0,70.891-31.802,70.891-70.891V162.509V70.891C396.889,31.802,365.088,0,325.999,0z M376.888,441.109
			C376.889,469.171,354.06,492,325.999,492H186.003c-28.061,0-50.891-22.829-50.891-50.891v-67.691
			c5.344,5.698,12.069,11.008,20.531,15.105c1.404,0.68,2.888,1.001,4.35,1.001c3.714,0,7.282-2.078,9.008-5.645
			c2.406-4.972,0.327-10.952-4.644-13.358c-22.889-11.081-28.419-34.847-29.245-39.142v-70.388
			c27.083,2.949,98.298,12.871,130.194,38.076c5.004,3.955,11.035,6.026,17.214,6.026c2.272,0,4.564-0.28,6.832-0.85
			c8.379-2.104,15.16-7.854,18.604-15.779c23.32-53.65,47.713-91.865,68.932-108.661V441.109z M169.898,245.561l171.335-57.252
			c-20.426,26.099-38.267,61.468-51.618,92.184c-1.302,2.994-3.774,4.013-5.133,4.354c-2.369,0.595-4.839,0.059-6.775-1.471
			C251.457,262.632,204.657,251.368,169.898,245.561z M376.889,155.307l-241.776,80.791V70.891c0-28.062,22.829-50.891,50.89-50.891
			h139.995c28.061,0,50.891,22.829,50.891,50.891V155.307z"/>
	</g>
</g>
<g>
	<g>
		<path d="M347.001,322.254c-5.523,0-10,4.478-10,10V411c0,5.522,4.477,10,10,10s10-4.478,10-10v-78.746
			C357.001,326.731,352.524,322.254,347.001,322.254z"/>
	</g>
</g>
<g>
	<g>
		<path d="M354.071,443.929c-0.46-0.459-0.97-0.879-1.52-1.24c-0.54-0.359-1.12-0.67-1.73-0.92c-0.6-0.25-1.23-0.45-1.87-0.58
			c-1.29-0.25-2.61-0.25-3.9,0c-0.64,0.13-1.27,0.33-1.88,0.58c-0.6,0.25-1.18,0.561-1.72,0.92c-0.55,0.36-1.06,0.78-1.52,1.24
			c-1.86,1.86-2.93,4.44-2.93,7.07s1.07,5.21,2.93,7.069c0.46,0.46,0.97,0.881,1.52,1.24c0.54,0.36,1.12,0.67,1.73,0.92
			c0.6,0.25,1.23,0.45,1.87,0.57c0.64,0.13,1.3,0.2,1.95,0.2s1.31-0.07,1.95-0.2c0.64-0.12,1.27-0.32,1.87-0.57
			c0.61-0.25,1.19-0.55,1.73-0.92c0.55-0.359,1.06-0.78,1.52-1.24c1.86-1.859,2.93-4.439,2.93-7.069
			S355.931,445.789,354.071,443.929z"/>
	</g>
</g>
<g>
	<g>
		<path d="M348.436,88.347c7.677-9.762,9.085-21.996,3.147-31.241c-6.831-10.635-21.122-13.948-34.63-8.585
			c-39.477-15.002-82.427-15.002-121.904,0c-13.509-5.363-27.799-2.049-34.63,8.585c-5.938,9.245-4.53,21.479,3.147,31.241
			c-1.919,12.838-1.919,25.792,0,38.631c-7.676,9.762-9.084,21.995-3.147,31.241c6.832,10.635,21.123,13.949,34.63,8.584
			c19.739,7.502,40.344,11.252,60.952,11.252c20.608,0,41.213-3.75,60.952-11.252c13.511,5.369,27.799,2.052,34.631-8.585
			c5.937-9.245,4.528-21.479-3.148-31.24C350.355,114.139,350.355,101.185,348.436,88.347z M327.94,87.071
			c2.578,13.663,2.578,27.518,0,41.181c-0.634,3.363,0.495,6.817,2.994,9.155c3.952,3.699,5.061,8.073,3.821,10.003
			c-1.509,2.352-7.226,2.75-12.617-0.237c-2.652-1.469-5.827-1.656-8.633-0.508c-37.082,15.174-77.926,15.174-115.008,0
			c-1.217-0.498-2.503-0.745-3.787-0.745c-1.675,0-3.345,0.421-4.847,1.253c-5.39,2.985-11.108,2.588-12.616,0.238
			c-1.24-1.931-0.131-6.305,3.821-10.004c2.499-2.338,3.628-5.792,2.994-9.155c-2.578-13.663-2.578-27.518,0-41.181
			c0.635-3.363-0.495-6.817-2.994-9.156c-3.952-3.698-5.061-8.071-3.821-10.001c1.509-2.351,7.227-2.749,12.617,0.237
			c2.652,1.468,5.828,1.656,8.633,0.507c37.082-15.174,77.926-15.174,115.008,0c2.807,1.148,5.982,0.961,8.633-0.507
			c5.39-2.987,11.107-2.589,12.617-0.237c1.24,1.93,0.131,6.303-3.821,10.001C328.435,80.254,327.305,83.708,327.94,87.071z"/>
	</g>
</g>
<g>
</g>
<g>
</g>
<g>
</g>
<g>
</g>
<g>
</g>
<g>
</g>
<g>
</g>
<g>
</g>
<g>
</g>
<g>
</g>
<g>
</g>
<g>
</g>
<g>
</g>
<g>
</g>
<g>
</g>
</svg>
