<svg id="Capa_1" enable-background="new 0 0 512 512" height="512" viewBox="0 0 512 512" width="512" xmlns="http://www.w3.org/2000/svg"><g><path d="m252.838 345.487c4.058 1.353 8.564-.023 11.162-3.487l60-80c1.929-2.572 2.503-5.914 1.545-8.981-.958-3.068-3.333-5.489-6.383-6.505l-53.162-17.721v-52.793c0-4.304-2.754-8.126-6.838-9.487-4.082-1.36-8.58.043-11.162 3.487l-60 80c-1.929 2.572-2.503 5.914-1.545 8.981.958 3.068 3.333 5.489 6.383 6.505l53.162 17.722v52.792c0 4.304 2.755 8.126 6.838 9.487zm-40.513-94.586 33.675-44.901v30c0 4.304 2.754 8.126 6.838 9.487l46.837 15.613-33.675 44.9v-30c0-4.304-2.754-8.125-6.838-9.487z"/><circle cx="356.001" cy="216" r="10"/><path d="m126.513 478.838c-1.198 3.593-.263 7.555 2.416 10.233l20 20c3.905 3.904 10.237 3.904 14.143 0l12.928-12.928 12.929 12.929c3.905 3.904 10.237 3.904 14.143 0l12.928-12.929 12.929 12.929c3.905 3.904 10.237 3.904 14.143 0l12.928-12.929 12.929 12.929c3.905 3.904 10.237 3.904 14.143 0l12.928-12.929 12.929 12.929c3.905 3.904 10.237 3.904 14.143 0l12.928-12.929 12.929 12.929c1.953 1.952 4.512 2.929 7.071 2.929s5.119-.977 7.071-2.929l20-20c2.678-2.679 3.613-6.64 2.415-10.233l-19.486-58.461c0-17.02 0-140.657 0-159.377 0-5.523-4.477-10-10-10s-10 4.477-10 10v74.23l-180 72v-230.461l180-72v66.23c0 5.523 4.477 10 10 10s10-4.477 10-10v-79.377l19.487-58.46c1.198-3.593.263-7.555-2.415-10.233l-20-20c-3.905-3.905-10.237-3.905-14.143 0l-12.929 12.928-12.929-12.929c-3.905-3.905-10.237-3.905-14.143 0l-12.928 12.929-12.929-12.929c-3.905-3.905-10.237-3.905-14.143 0l-12.928 12.929-12.929-12.929c-3.905-3.905-10.237-3.905-14.143 0l-12.928 12.929-12.929-12.929c-3.905-3.905-10.237-3.905-14.143 0l-12.928 12.929-12.929-12.929c-3.905-3.905-10.237-3.905-14.143 0l-20 20c-2.678 2.679-3.613 6.64-2.416 10.233l19.488 58.461v328.755zm229.487 9.02-12.929-12.929c-3.905-3.905-10.237-3.905-14.143 0l-12.928 12.929-12.929-12.929c-3.905-3.905-10.237-3.905-14.143 0l-12.928 12.929-12.929-12.929c-3.905-3.905-10.237-3.905-14.143 0l-12.928 12.929-12.929-12.929c-3.905-3.905-10.237-3.905-14.143 0l-12.928 12.929-12.929-12.929c-3.905-3.905-10.237-3.905-14.143 0l-12.928 12.929-8.559-8.559 15.767-47.299h185.585l15.766 47.299zm-10-75.858h-138.074l138.074-55.23zm-180-312h138.074l-138.074 55.23zm-10-75.858 12.929 12.929c3.905 3.905 10.237 3.905 14.143 0l12.928-12.929 12.929 12.929c3.905 3.905 10.237 3.905 14.143 0l12.928-12.929 12.929 12.929c3.905 3.905 10.237 3.905 14.143 0l12.928-12.929 12.929 12.929c3.905 3.905 10.237 3.905 14.143 0l12.928-12.929 12.929 12.929c3.905 3.905 10.237 3.905 14.143 0l12.928-12.929 8.559 8.559-15.766 47.299h-185.585l-15.766-47.299z"/></g></svg>