<svg id="Capa_1" enable-background="new 0 0 511.924 511.924" height="512" viewBox="0 0 511.924 511.924" width="512" xmlns="http://www.w3.org/2000/svg"><g><path d="m396.433 0h-280.942c-8.379 0-15.196 6.817-15.196 15.196v38.937c0 1.918.735 3.763 2.053 5.155l15.437 16.31 41.875 318.542c1.465 11.143 9.444 20.082 19.775 23.181l5.771 68.858c1.209 14.436 13.506 25.745 27.993 25.745h84.528c14.487 0 26.783-11.309 27.993-25.745l5.747-68.573c10.825-2.802 19.286-11.958 20.799-23.466l31.294-238.054c.54-4.107-2.352-7.874-6.458-8.414-4.107-.534-7.874 2.352-8.414 6.458l-21.172 161.055h-31.001c-4.142 0-7.5 3.358-7.5 7.5s3.358 7.5 7.5 7.5h29.029l-8.15 62c-.848 6.45-6.394 11.314-12.899 11.314h-137.064c-6.505 0-12.051-4.864-12.899-11.314l-8.15-62h118.169c4.142 0 7.5-3.358 7.5-7.5s-3.358-7.5-7.5-7.5h-120.141l-32.07-243.954c-.206-1.567-.902-3.03-1.989-4.178l-5.131-5.421h33.358c4.142 0 7.5-3.358 7.5-7.5s-3.358-7.5-7.5-7.5h-43.283v-31.436c0-.108.088-.196.196-.196h280.941c.108 0 .196.088.196.196v31.437h-206.087c-4.142 0-7.5 3.358-7.5 7.5s3.358 7.5 7.5 7.5h196.163l-5.131 5.421c-1.086 1.148-1.783 2.61-1.989 4.178l-6.729 51.184c-.54 4.107 2.352 7.874 6.458 8.414 4.114.541 7.874-2.352 8.414-6.458l6.412-48.772 15.437-16.31c1.318-1.393 2.053-3.237 2.053-5.155v-38.939c0-8.379-6.817-15.196-15.196-15.196zm-98.707 496.924h-84.528c-6.751 0-12.481-5.27-13.045-11.998l-1.652-19.715h22.998c.106 8.337 6.912 15.09 15.274 15.09h37.378c8.362 0 15.169-6.752 15.274-15.09h22.998l-1.652 19.715c-.563 6.728-6.293 11.998-13.045 11.998zm-23.291-31.906c0 .157-.127.284-.284.284h-37.378c-.157 0-.284-.127-.284-.284v-14.611c0-.157.127-.284.284-.284h37.378c.157 0 .284.127.284.284zm41.904-46.518-2.658 31.712h-24.256c-.106-8.337-6.912-15.089-15.274-15.089h-37.378c-8.362 0-15.168 6.752-15.274 15.089h-24.256l-2.658-31.712z"/><path d="m308.266 185.354c0-29.116-23.688-52.804-52.804-52.804s-52.804 23.688-52.804 52.804 23.688 52.804 52.804 52.804 52.804-23.688 52.804-52.804zm-52.804 37.804c-20.845 0-37.804-16.959-37.804-37.804s16.959-37.804 37.804-37.804 37.804 16.959 37.804 37.804-16.959 37.804-37.804 37.804z"/><path d="m263.397 111.389v-6.938c0-4.142-3.358-7.5-7.5-7.5s-7.5 3.358-7.5 7.5v6.938c0 4.142 3.358 7.5 7.5 7.5s7.5-3.358 7.5-7.5z"/><path d="m318.279 123.151c-2.93-2.929-7.678-2.928-10.607 0l-4.905 4.906c-2.929 2.929-2.928 7.678 0 10.607 1.465 1.464 3.384 2.196 5.303 2.196s3.839-.732 5.304-2.197l4.905-4.906c2.929-2.928 2.929-7.677 0-10.606z"/><path d="m329.427 178.289c-4.142 0-7.5 3.358-7.5 7.5s3.358 7.5 7.5 7.5h6.938c4.142 0 7.5-3.358 7.5-7.5s-3.358-7.5-7.5-7.5z"/><path d="m307.058 248.171c1.464 1.464 3.384 2.197 5.303 2.197s3.839-.732 5.303-2.197c2.929-2.929 2.929-7.678 0-10.606l-4.906-4.906c-2.929-2.929-7.678-2.929-10.606 0-2.929 2.929-2.929 7.678 0 10.606z"/><path d="m247.528 259.319v6.938c0 4.142 3.358 7.5 7.5 7.5s7.5-3.358 7.5-7.5v-6.938c0-4.142-3.358-7.5-7.5-7.5s-7.5 3.358-7.5 7.5z"/><path d="m192.645 247.558c1.465 1.464 3.384 2.196 5.303 2.196s3.839-.732 5.304-2.197l4.905-4.906c2.929-2.929 2.928-7.678 0-10.607-2.93-2.929-7.678-2.928-10.607 0l-4.905 4.906c-2.929 2.93-2.928 7.679 0 10.608z"/><path d="m174.56 177.42c-4.142 0-7.5 3.358-7.5 7.5s3.358 7.5 7.5 7.5h6.938c4.142 0 7.5-3.358 7.5-7.5s-3.358-7.5-7.5-7.5z"/><path d="m198.165 138.049c1.464 1.464 3.384 2.197 5.303 2.197s3.839-.732 5.303-2.197c2.929-2.929 2.929-7.678 0-10.606l-4.906-4.906c-2.929-2.929-7.678-2.929-10.606 0-2.929 2.929-2.929 7.678 0 10.606z"/></g></svg>