<svg id="Capa_1" enable-background="new 0 0 512 512" height="512" viewBox="0 0 512 512" width="512" xmlns="http://www.w3.org/2000/svg"><g><path d="m504.5 396.798h-4.442l-238.233-293.82c-1.424-1.756-3.564-2.776-5.826-2.776s-4.402 1.02-5.826 2.776l-238.232 293.82h-4.441c-4.142 0-7.5 3.358-7.5 7.5s3.358 7.5 7.5 7.5h497c4.142 0 7.5-3.358 7.5-7.5s-3.358-7.5-7.5-7.5zm-116.959 0c-14.5-15.883-97.964-110.152-124.326-202.969-.917-3.225-3.862-5.451-7.215-5.451s-6.299 2.226-7.215 5.451c-26.342 92.747-109.826 187.078-124.327 202.969h-13.265v-92.072c12.849-6.551 25.298-14.14 37.064-22.596 3.363-2.417 4.13-7.104 1.713-10.468-2.417-3.363-7.104-4.13-10.467-1.713-3.916 2.815-7.919 5.515-11.983 8.119l109.925-135.574c-15.548 40.655-40.138 77.023-72.338 106.61-3.05 2.803-3.251 7.547-.449 10.597 2.803 3.051 7.548 3.25 10.597.449 37.258-34.233 64.854-77.065 80.763-125.034 11.069 33.146 27.95 64.409 49.569 91.573 25.876 32.514 58.724 59.419 95.22 78.036v67.508c0 4.142 3.358 7.5 7.5 7.5s7.5-3.358 7.5-7.5v-55.529l64.94 80.093h-93.206zm-47.036 0c-6.812-12.056-28.87-52.461-48.414-103.198 11.204 18.765 22.774 35.792 33.067 49.972 16.879 23.255 32.328 41.802 42.276 53.226zm-195.939 0c9.948-11.424 25.397-29.971 42.276-53.226 10.295-14.183 21.868-31.215 33.074-49.985-19.545 50.743-41.609 91.153-48.422 103.21h-26.928zm111.434-165.776c18.754 73.068 53.047 139.817 67.305 165.776h-134.61c14.258-25.959 48.551-92.708 67.305-165.776zm18.711-88.334 109.734 135.339c-25.333-16.284-48.192-36.892-67.122-60.678-17.829-22.404-32.24-47.757-42.612-74.661zm-178.518 174.017v80.093h-64.94z"/></g></svg>