<?xml version="1.0" encoding="iso-8859-1"?>
<!-- Generator: Adobe Illustrator 19.0.0, SVG Export Plug-In . SVG Version: 6.00 Build 0)  -->
<svg version="1.1" id="Capa_1" xmlns="http://www.w3.org/2000/svg" xmlns:xlink="http://www.w3.org/1999/xlink" x="0px" y="0px"
	 viewBox="0 0 512.001 512.001" style="enable-background:new 0 0 512.001 512.001;" xml:space="preserve">
<g>
	<g>
		<path d="M501.403,17.526H446c-4.143,0-7.5,3.357-7.5,7.5c0,4.143,3.357,7.5,7.5,7.5h51v30.469H394.365l-26.502-30.469H410
			c4.143,0,7.5-3.357,7.5-7.5s-3.357-7.5-7.5-7.5H96.746c-5.843,0-10.597,4.755-10.597,10.6v39.269
			c0,5.845,4.753,10.601,10.597,10.601h106.052v231.209c0,5.845,4.754,10.601,10.597,10.601h171.36
			c5.843,0,10.597-4.756,10.597-10.601v-48.204c0-4.143-3.357-7.5-7.5-7.5s-7.5,3.357-7.5,7.5v13.836H217.798V69.795l28.378-32.308
			c5.399,24.258,27.06,42.452,52.899,42.452c25.944,0,47.679-18.341,52.967-42.746l28.31,32.547v155.261c0,4.143,3.357,7.5,7.5,7.5
			s7.5-3.357,7.5-7.5V77.995h106.052c5.843,0,10.597-4.756,10.597-10.601V28.126C512,22.281,507.246,17.526,501.403,17.526z
			 M217.292,70.37l0.161-0.183C217.404,70.453,217.351,70.553,217.292,70.37z M380.352,289.837v14.968H217.798v-14.968H380.352z
			 M203.807,62.995H101.149V32.526h129.42L203.807,62.995z M294.532,32.526h9.087v3.602h-9.087V32.526z M299.075,64.939
			c-19.293,0-35.377-14.026-38.613-32.413h19.07v11.102c0,4.143,3.357,7.5,7.5,7.5h24.087c4.143,0,7.5-3.357,7.5-7.5V32.526h19.066
			C334.443,50.921,318.363,64.939,299.075,64.939z"/>
	</g>
</g>
<g>
	<g>
		<path d="M195.892,115.938V99.51h-0.001c0-6.811-5.542-12.354-12.354-12.354H88c-4.142,0-7.5,3.357-7.5,7.5
			c0,4.143,3.358,7.5,7.5,7.5h92.891v17.345H15v-17.345h36.999c4.142,0,7.5-3.357,7.5-7.5c0-4.143-3.358-7.5-7.5-7.5H12.353
			C5.542,87.156,0,92.698,0,99.51v27.491c0,0.069,0.009,0.138,0.01,0.207c0.045,32.916,0.348,96.987,1.852,163.595
			c2.143,94.964,5.897,160.466,11.158,194.689c0.803,5.205,5.208,8.983,10.475,8.983h41.578c5.007,0,9.373-3.561,10.379-8.463
			c7.994-38.868,13.092-195.613,13.092-264.613v-11.102h18.544v11.102c0,35.896,1.409,93.09,3.507,142.32
			c1.521,35.659,4.788,98.963,9.585,122.286c1.004,4.907,5.37,8.47,10.38,8.47h41.58c5.202,0,9.599-3.725,10.453-8.856
			c8.472-50.839,11.555-151.853,12.649-227.64C196.136,196.291,196.071,139.669,195.892,115.938z M61.417,479.476H27.295
			c-0.475-3.37-0.931-6.995-1.37-10.832h37.043C62.465,472.742,61.948,476.386,61.417,479.476z M73.544,221.4
			c0,56.576-3.4,172.314-8.984,232.244H24.397c-8.002-87.568-9.212-254.387-9.371-319.143h27.466l31.052,69.888V221.4z
			 M109.725,195.298H85.918l-27.012-60.797h77.992L109.725,195.298z M168.386,479.476h-34.169c-0.534-3.119-1.047-6.771-1.54-10.832
			h37.221C169.415,472.445,168.912,476.067,168.386,479.476z M180.243,257.763c-0.902,62.454-3.15,142.065-8.641,195.881h-40.497
			c-2.598-28.188-4.476-65.99-5.524-90.563c-2.089-49.04-3.493-105.978-3.493-141.682v-17.002l31.241-69.896h27.65
			C181.056,163.083,180.952,208.806,180.243,257.763z"/>
	</g>
</g>
<g>
</g>
<g>
</g>
<g>
</g>
<g>
</g>
<g>
</g>
<g>
</g>
<g>
</g>
<g>
</g>
<g>
</g>
<g>
</g>
<g>
</g>
<g>
</g>
<g>
</g>
<g>
</g>
<g>
</g>
</svg>
