<?xml version="1.0" encoding="iso-8859-1"?>
<!-- Generator: Adobe Illustrator 19.0.0, SVG Export Plug-In . SVG Version: 6.00 Build 0)  -->
<svg version="1.1" id="Capa_1" xmlns="http://www.w3.org/2000/svg" xmlns:xlink="http://www.w3.org/1999/xlink" x="0px" y="0px"
	 viewBox="0 0 368 368" style="enable-background:new 0 0 368 368;" xml:space="preserve">
<g>
	<g>
		<path d="M296,0H72C49.944,0,32,17.944,32,40v312c0,8.824,7.176,16,16,16h208c8.824,0,16-7.176,16-16v-32h48
			c8.824,0,16-7.176,16-16V40C336,17.944,318.056,0,296,0z M256,352H48v-32h208V352z M256,304H48v-32h208V304z M256,40v216H48V40
			c0-13.232,10.768-24,24-24h192.016C258.984,22.688,256,31,256,40z M320,304h-48V40c0-13.232,10.768-24,24-24s24,10.768,24,24V304z
			"/>
	</g>
</g>
<g>
</g>
<g>
</g>
<g>
</g>
<g>
</g>
<g>
</g>
<g>
</g>
<g>
</g>
<g>
</g>
<g>
</g>
<g>
</g>
<g>
</g>
<g>
</g>
<g>
</g>
<g>
</g>
<g>
</g>
</svg>
