<?xml version="1.0" encoding="iso-8859-1"?>
<!-- Generator: Adobe Illustrator 19.0.0, SVG Export Plug-In . SVG Version: 6.00 Build 0)  -->
<svg version="1.1" id="Capa_1" xmlns="http://www.w3.org/2000/svg" xmlns:xlink="http://www.w3.org/1999/xlink" x="0px" y="0px"
	 viewBox="0 0 368 368" style="enable-background:new 0 0 368 368;" xml:space="preserve">
<g>
	<g>
		<path d="M351.992,64H16C7.176,64,0,71.176,0,80v40v64c0,4.416,3.576,8,8,8c42.728,0,78.328,17,105.816,50.512
			c22.096,27.056,30.408,55.4,30.496,55.68c0.984,3.44,4.12,5.808,7.688,5.808h64c3.568,0,6.704-2.368,7.688-5.8
			c0.088-0.28,8.4-28.624,30.496-55.68C281.672,209,317.272,192,360,192c4.424,0,8-3.584,8-8v-64V80
			C368,71.176,360.824,64,351.992,64z M112,217.072c-26.456-25.144-59.184-39.12-96-40.88V128h96V217.072z M239.992,234.624
			c-17.128,21.672-26.152,43.304-29.768,53.376h-52.456c-3.616-10.072-12.64-31.704-29.776-53.376V128h112V234.624z M352,176.192
			c-36.816,1.76-69.544,15.736-96,40.88V128h96V176.192z M248,112H120H16V80h335.992L352,112H248z"/>
	</g>
</g>
<g>
</g>
<g>
</g>
<g>
</g>
<g>
</g>
<g>
</g>
<g>
</g>
<g>
</g>
<g>
</g>
<g>
</g>
<g>
</g>
<g>
</g>
<g>
</g>
<g>
</g>
<g>
</g>
<g>
</g>
</svg>
